<svg width="641" height="322" viewBox="0 0 641 322" fill="none" xmlns="http://www.w3.org/2000/svg">
<path d="M211.092 321.334C191.75 321.334 172.437 320.988 153.153 320.296C125.599 319.306 97.1062 318.283 70.6233 303.595C52.0974 293.321 35.6899 276.837 23.1749 255.924C14.8101 241.75 8.67671 226.373 4.99008 210.332C-1.88691 181.129 -1.65267 150.701 5.6731 121.607C8.24033 111.631 11.7794 101.932 16.2396 92.6473C35.5525 52.6542 70.7777 25.8079 112.884 18.9927C113.231 18.9475 113.583 18.94 113.932 18.9703C114.122 18.9804 114.31 18.9913 114.503 18.9832L114.751 18.9044C115.386 18.6837 116.038 18.5163 116.701 18.4039C181.639 8.73651 250.288 28.2971 315.222 74.9697C365.429 111.062 431.966 130.497 518.638 134.385L519.869 134.45C543.996 135.836 567.334 145.783 587.363 163.217C607.133 180.425 621.976 203.383 630.288 229.61C631.31 232.808 632.247 236.137 633.073 239.503C633.841 242.632 633.787 245.906 632.915 249.007C632.043 252.109 630.384 254.931 628.097 257.201V257.208L627.882 257.429C627.362 257.946 626.815 258.442 626.256 258.903L625.599 259.445C620.06 264.007 615.686 267.612 610.45 270.411C606.958 272.265 603.244 273.668 599.398 274.584C578.277 279.733 556.828 284.507 535.648 288.774C494.514 297.068 452.296 303.91 410.168 309.109C344.122 317.253 277.638 321.335 211.092 321.334ZM113.44 20.3867C113.311 20.3855 113.181 20.3943 113.053 20.413C71.341 27.1645 36.4492 53.7472 17.3278 93.3445C12.9117 102.537 9.40759 112.14 6.86589 122.017C-0.393129 150.853 -0.624454 181.011 6.19136 209.955C9.84191 225.842 15.9159 241.072 24.1999 255.111C36.5924 275.819 52.8321 292.137 71.1638 302.303C97.4089 316.859 125.767 317.878 153.192 318.862C238.967 321.927 324.85 318.189 410.035 307.684C452.136 302.487 494.326 295.651 535.433 287.362C556.599 283.098 578.033 278.327 599.139 273.181C602.893 272.288 606.518 270.92 609.925 269.11C615.056 266.368 619.389 262.798 624.874 258.279L625.532 257.737C626.012 257.341 626.484 256.916 626.935 256.475L627.065 256.34C631.573 251.796 633.326 245.801 631.875 239.893V239.892C631.058 236.562 630.131 233.269 629.119 230.104C612.138 176.526 568.21 138.661 519.809 135.882L518.585 135.817C478.995 134.041 444.35 129.12 412.676 120.771C374.865 110.806 341.855 95.805 314.563 76.1856C249.877 29.6919 181.514 10.2041 116.859 19.8256C116.256 19.9298 115.661 20.0839 115.083 20.2863L114.636 20.4112C114.383 20.4226 114.128 20.4195 113.875 20.4021C113.726 20.3944 113.581 20.3867 113.44 20.3867Z" fill="#007D74"/>
<path d="M81.1743 240.85C101.364 240.85 117.731 224.482 117.731 204.292C117.731 184.103 101.364 167.735 81.1743 167.735C60.9844 167.735 44.6172 184.103 44.6172 204.292C44.6172 224.482 60.9844 240.85 81.1743 240.85Z" fill="#E7E7E7"/>
<path d="M314.136 73.1172C334.326 73.1172 350.693 56.75 350.693 36.5601C350.693 16.3701 334.326 0.00292969 314.136 0.00292969C293.946 0.00292969 277.579 16.3701 277.579 36.5601C277.579 56.75 293.946 73.1172 314.136 73.1172Z" fill="#E7E7E7"/>
<path d="M604.443 246.584C624.633 246.584 641 230.217 641 210.027C641 189.837 624.633 173.47 604.443 173.47C584.253 173.47 567.886 189.837 567.886 210.027C567.886 230.217 584.253 246.584 604.443 246.584Z" fill="#E7E7E7"/>
<path d="M380.083 40.5475V123.443C380.083 125.165 379.404 126.818 378.193 128.042C376.982 129.266 375.337 129.962 373.615 129.98C373.591 129.983 373.567 129.984 373.543 129.983H363.895C356.175 129.983 348.772 126.916 343.313 121.458C337.855 115.999 334.788 108.596 334.788 100.876V40.5475C334.788 38.8131 335.477 37.1497 336.704 35.9232C337.93 34.6968 339.593 34.0078 341.328 34.0078H345.237C343.426 39.2911 368.007 41.5155 369.356 34.0078H373.543C375.278 34.0078 376.941 34.6968 378.167 35.9233C379.394 37.1497 380.083 38.8131 380.083 40.5475Z" fill="#E7E7E7"/>
<path d="M375.544 140.497H338.689C335.83 140.494 333.088 139.357 331.066 137.335C329.044 135.313 327.907 132.572 327.904 129.712V71.7646C327.701 71.6193 327.537 71.4278 327.423 71.206C327.309 70.9843 327.25 70.7387 327.251 70.4895V64.6616C327.25 64.4125 327.309 64.1669 327.423 63.9453C327.537 63.7236 327.701 63.5322 327.904 63.3869V61.8228C327.701 61.6775 327.537 61.4861 327.423 61.2644C327.309 61.0427 327.25 60.7971 327.251 60.548V54.7198C327.25 54.4707 327.309 54.2251 327.423 54.0034C327.537 53.7817 327.701 53.5903 327.904 53.4451V50.6181C327.654 50.4839 327.445 50.2843 327.3 50.0407C327.155 49.797 327.078 49.5185 327.079 49.2349V43.407C327.078 43.1233 327.155 42.8447 327.3 42.601C327.445 42.3574 327.654 42.1577 327.904 42.0234V34.2771C327.907 31.4177 329.044 28.6764 331.066 26.6546C333.088 24.6327 335.83 23.4954 338.689 23.4922H375.544C378.404 23.4954 381.145 24.6327 383.167 26.6546C385.189 28.6765 386.326 31.4178 386.329 34.2772V51.1624C386.524 51.2839 386.684 51.4527 386.795 51.6531C386.906 51.8535 386.964 52.0788 386.964 52.3079V63.4205C386.964 63.6497 386.906 63.875 386.795 64.0755C386.684 64.2759 386.524 64.4448 386.329 64.5664V129.712C386.326 132.571 385.189 135.313 383.167 137.335C381.145 139.357 378.404 140.494 375.544 140.497ZM338.689 24.9258C336.21 24.9286 333.833 25.9147 332.08 27.6678C330.326 29.4209 329.34 31.7979 329.337 34.2772V43.2429L328.648 43.2695C328.612 43.2707 328.578 43.2857 328.553 43.3113C328.528 43.3369 328.513 43.3711 328.513 43.407V49.2348C328.513 49.2707 328.528 49.3049 328.553 49.3304C328.578 49.356 328.612 49.371 328.648 49.3724L329.337 49.3987V54.4516L328.792 54.586C328.762 54.5933 328.735 54.6104 328.715 54.6346C328.696 54.6588 328.685 54.6887 328.684 54.7198V60.548C328.685 60.5791 328.696 60.609 328.715 60.6332C328.735 60.6574 328.762 60.6744 328.792 60.6817L329.337 60.8161V64.3935L328.792 64.5279C328.762 64.5352 328.735 64.5522 328.715 64.5764C328.696 64.6006 328.685 64.6306 328.684 64.6616V70.4895C328.685 70.5206 328.696 70.5506 328.715 70.5749C328.735 70.5991 328.762 70.6162 328.792 70.6235L329.337 70.7579V129.712C329.34 132.191 330.326 134.568 332.08 136.322C333.833 138.075 336.21 139.061 338.689 139.064H375.544C378.024 139.061 380.401 138.075 382.154 136.321C383.907 134.568 384.893 132.191 384.896 129.712V63.3389H385.531V52.3898H384.896V34.2771C384.893 31.7979 383.907 29.421 382.154 27.6679C380.401 25.9147 378.024 24.9286 375.544 24.9258L338.689 24.9258Z" fill="#00746C"/>
<path d="M174.955 193.829H79.0555C77.6936 193.826 76.3885 193.283 75.4254 192.32C74.4624 191.357 73.9197 190.052 73.916 188.691V141.963C73.9195 140.601 74.462 139.296 75.4249 138.333C76.3879 137.37 77.6929 136.827 79.0548 136.823H174.954C176.316 136.827 177.621 137.369 178.584 138.332C179.547 139.295 180.09 140.6 180.094 141.962V188.69C180.09 190.052 179.548 191.357 178.585 192.32C177.622 193.283 176.317 193.826 174.955 193.829Z" fill="#004C4C"/>
<path d="M174.955 193.829H79.0555C77.6936 193.826 76.3885 193.283 75.4254 192.32C74.4624 191.357 73.9197 190.052 73.916 188.691V141.963C73.9195 140.601 74.462 139.296 75.4249 138.333C76.3879 137.37 77.6929 136.827 79.0548 136.823H174.954C176.316 136.827 177.621 137.369 178.584 138.332C179.547 139.295 180.09 140.6 180.094 141.962V188.69C180.09 190.052 179.548 191.357 178.585 192.32C177.622 193.283 176.317 193.826 174.955 193.829ZM79.0555 138.257C78.0734 138.26 77.1324 138.651 76.438 139.346C75.7436 140.04 75.3523 140.981 75.3496 141.963V188.69C75.3525 189.672 75.7439 190.613 76.4384 191.307C77.1329 192.002 78.0741 192.393 79.0562 192.396H174.953C175.936 192.393 176.877 192.002 177.571 191.307C178.266 190.613 178.657 189.671 178.66 188.689V141.963C178.657 140.981 178.266 140.04 177.571 139.345C176.877 138.651 175.936 138.26 174.953 138.257L79.0555 138.257Z" fill="#00746C"/>
<path d="M132.145 186.924C113.231 186.924 93.5098 186.743 86.1515 186.626C85.1833 186.606 84.2614 186.208 83.5824 185.518C82.9035 184.827 82.5213 183.899 82.5176 182.93V144.25C82.518 143.904 82.6556 143.571 82.9005 143.326C83.1454 143.08 83.4776 142.942 83.8243 142.94H170.182C170.529 142.941 170.861 143.079 171.107 143.323C171.352 143.568 171.491 143.9 171.492 144.247V170.491C171.476 174.775 169.781 178.882 166.772 181.93C163.762 184.979 159.678 186.727 155.395 186.8C148.537 186.889 140.416 186.924 132.145 186.924Z" fill="#E7E7E7"/>
<path d="M165.055 168.08H87.024C86.3706 168.078 85.7337 167.875 85.1996 167.498C84.6656 167.122 84.2604 166.59 84.0392 165.975L75.2072 141.198C75.037 140.72 74.984 140.208 75.0525 139.706C75.1211 139.203 75.3093 138.724 75.6013 138.309C75.8933 137.895 76.2805 137.556 76.7306 137.322C77.1806 137.088 77.6802 136.965 78.1875 136.964L175.725 136.828C176.189 136.828 176.647 136.929 177.067 137.125C177.487 137.32 177.86 137.606 178.157 137.961C178.455 138.316 178.672 138.733 178.791 139.181C178.911 139.629 178.931 140.097 178.85 140.554L178.925 140.586L178.645 141.239L178.642 141.246L167.965 166.159C167.722 166.729 167.317 167.215 166.799 167.557C166.282 167.898 165.675 168.08 165.055 168.08ZM175.729 138.262L78.1903 138.398C77.9124 138.398 77.6387 138.465 77.3921 138.593C77.1456 138.722 76.9334 138.907 76.7735 139.134C76.6135 139.362 76.5104 139.624 76.4728 139.899C76.4352 140.175 76.4643 140.455 76.5575 140.717L85.3891 165.493C85.5105 165.83 85.7326 166.121 86.0253 166.327C86.318 166.534 86.667 166.645 87.025 166.646H165.055C165.394 166.646 165.726 166.547 166.009 166.36C166.293 166.173 166.515 165.907 166.648 165.595L177.325 140.681C177.438 140.417 177.484 140.129 177.458 139.843C177.433 139.557 177.337 139.282 177.178 139.042C177.02 138.802 176.805 138.605 176.552 138.469C176.299 138.333 176.017 138.262 175.729 138.262Z" fill="#00746C"/>
<path d="M126.859 173.473C130.234 173.473 132.969 170.737 132.969 167.363C132.969 163.988 130.234 161.253 126.859 161.253C123.485 161.253 120.749 163.988 120.749 167.363C120.749 170.737 123.485 173.473 126.859 173.473Z" fill="#004C4C"/>
<path d="M357.671 120.43C361.045 120.43 363.781 117.695 363.781 114.32C363.781 110.946 361.045 108.21 357.671 108.21C354.296 108.21 351.561 110.946 351.561 114.32C351.561 117.695 354.296 120.43 357.671 120.43Z" fill="#004C4C"/>
<path d="M588.766 202.946L572.445 186.832C571.65 186.041 570.707 185.415 569.671 184.99C568.634 184.564 567.523 184.347 566.402 184.352H566.345C565.215 184.355 564.098 184.582 563.057 185.02C562.016 185.458 561.072 186.098 560.281 186.903C556.631 190.597 554.555 195.561 554.49 200.753C554.424 205.945 556.374 210.96 559.929 214.744C560.101 214.931 560.281 215.11 560.46 215.289C561.452 216.276 562.548 217.153 563.728 217.905C566.955 219.99 570.718 221.093 574.559 221.081H574.681C577.318 221.072 579.927 220.54 582.357 219.516C584.787 218.493 586.99 216.997 588.838 215.117C590.44 213.492 591.332 211.298 591.318 209.016C591.305 206.735 590.387 204.552 588.766 202.946ZM587.82 214.106C584.79 217.159 580.8 219.074 576.522 219.528C572.245 219.983 567.942 218.949 564.338 216.601C563.307 215.919 562.344 215.138 561.463 214.271C557.946 210.798 555.953 206.07 555.922 201.127C555.891 196.184 557.825 191.431 561.298 187.914C561.959 187.241 562.746 186.707 563.615 186.341C564.484 185.976 565.416 185.787 566.359 185.785H566.402C567.335 185.782 568.26 185.963 569.123 186.317C569.987 186.671 570.772 187.192 571.434 187.85L587.756 203.971C589.107 205.307 589.873 207.125 589.885 209.025C589.897 210.925 589.154 212.753 587.82 214.106Z" fill="#00746C"/>
<path d="M535.213 150.06L518.892 133.939C517.285 132.345 515.112 131.453 512.849 131.459H512.799C511.668 131.464 510.549 131.692 509.507 132.131C508.465 132.57 507.52 133.212 506.727 134.018C503.71 137.082 501.754 141.032 501.145 145.289C500.536 149.546 501.307 153.886 503.344 157.673L503.351 157.68C504.192 159.229 505.235 160.658 506.455 161.93C506.591 162.088 506.749 162.246 506.907 162.404C510.655 166.124 515.725 168.207 521.006 168.195H521.135C523.772 168.184 526.381 167.651 528.811 166.626C531.241 165.601 533.444 164.105 535.292 162.224C536.086 161.42 536.713 160.468 537.139 159.422C537.564 158.375 537.78 157.255 537.772 156.126C537.765 154.996 537.535 153.879 537.096 152.838C536.657 151.798 536.017 150.854 535.213 150.06ZM534.267 161.221C532.551 162.966 530.507 164.354 528.252 165.305C525.997 166.257 523.575 166.751 521.128 166.762H521.006C517.331 166.76 513.737 165.672 510.679 163.634C507.62 161.596 505.232 158.699 503.816 155.307C502.399 151.916 502.017 148.181 502.718 144.573C503.418 140.964 505.17 137.644 507.752 135.029C509.089 133.678 510.907 132.912 512.807 132.9C514.707 132.888 516.535 133.63 517.888 134.964L534.21 151.078C535.56 152.417 536.324 154.236 536.335 156.138C536.346 158.039 535.602 159.867 534.267 161.221Z" fill="#00746C"/>
<path d="M589.81 208.012L571.816 190.239C570.636 189.077 569.043 188.429 567.386 188.44C565.729 188.45 564.145 189.117 562.979 190.294C561.521 191.767 560.368 193.513 559.585 195.432C558.802 197.35 558.406 199.405 558.417 201.477C558.429 203.55 558.849 205.599 559.653 207.509C560.458 209.419 561.631 211.152 563.105 212.608C564.58 214.064 566.327 215.216 568.247 215.996C570.166 216.777 572.221 217.172 574.293 217.158C576.366 217.143 578.415 216.721 580.324 215.915C582.233 215.108 583.964 213.933 585.419 212.457L589.81 208.012Z" fill="#E7E7E7"/>
<path d="M536.26 155.123L518.266 137.351C517.086 136.188 515.493 135.541 513.836 135.551C512.18 135.561 510.595 136.228 509.429 137.406C507.971 138.878 506.818 140.624 506.035 142.543C505.253 144.462 504.856 146.516 504.867 148.589C504.879 150.661 505.299 152.711 506.104 154.621C506.908 156.53 508.081 158.263 509.555 159.719C511.03 161.176 512.777 162.327 514.697 163.108C516.616 163.888 518.671 164.283 520.744 164.269C522.816 164.255 524.865 163.832 526.774 163.026C528.683 162.219 530.414 161.045 531.869 159.568L536.26 155.123Z" fill="#E7E7E7"/>
<path d="M570.036 219.081L569.606 220.213C567.584 219.446 565.625 218.677 563.728 217.905C530.124 204.193 514.082 188.143 503.351 157.679L503.344 157.672C502.835 156.238 502.341 154.771 501.86 153.271L502.993 152.905C503.372 154.348 503.925 155.74 504.642 157.048C505.229 158.719 505.834 160.346 506.455 161.93C516.541 187.642 531.414 202.336 559.929 214.744C561.362 215.368 562.832 215.987 564.337 216.601C566.085 217.74 568.011 218.578 570.036 219.081Z" fill="#00746C"/>
<path d="M518.594 166.889L517.586 167.909L554.815 204.68L555.823 203.66L518.594 166.889Z" fill="#00746C"/>
</svg>
