<svg width="44" height="28" viewBox="0 0 44 28" fill="none" xmlns="http://www.w3.org/2000/svg">
<g clip-path="url(#clip0_2068_34173)">
<path d="M37.2655 14.5439C37.6284 13.2678 37.6824 11.9276 37.4234 10.6279C37.1643 9.32824 36.5993 8.10425 35.7723 7.05153C34.9453 5.99882 33.8787 5.14587 32.6559 4.5593C31.4331 3.97272 30.0872 3.66839 28.7232 3.67008C26.7832 3.67008 24.8306 5.26788 23.1983 6.53304L21.4002 7.93044L19.6021 6.53441C17.9684 5.26789 16.0158 3.67144 14.0772 3.67144C12.7135 3.66972 11.3679 3.97386 10.1453 4.56011C8.92276 5.14637 7.85632 5.99888 7.02925 7.05111C6.20218 8.10335 5.63685 9.32685 5.37738 10.6261C5.11792 11.9254 5.17134 13.2652 5.53347 14.5412C4.24324 12.6987 3.67671 10.4683 3.93677 8.25499C4.19684 6.04167 5.26624 3.99229 6.95076 2.47907C8.63527 0.965858 10.8232 0.0891836 13.117 0.00828455C15.4109 -0.0726145 17.6585 0.647628 19.4518 2.03819L21.4002 3.55011L23.3472 2.03683C25.1406 0.64488 27.3892 -0.0762989 29.6841 0.00439863C31.9791 0.0850962 34.168 0.962312 35.8529 2.47657C37.5379 3.99084 38.607 6.04161 38.866 8.25608C39.1249 10.4705 38.5565 12.7017 37.2641 14.5439H37.2655Z" fill="white"/>
<path d="M34.2605 18.8492C29.0053 25.1545 22.0069 27.9834 22.0069 27.9834C22.0069 27.9834 21.2848 23.3331 23.4706 20.0844C24.7152 18.2384 26.1396 17.7994 27.4657 15.4491C27.489 15.4019 27.5245 15.3613 27.5687 15.3312C27.6128 15.3012 27.6643 15.2828 27.718 15.2777C27.7717 15.2726 27.8258 15.2811 27.8751 15.3023C27.9245 15.3235 27.9673 15.3567 27.9995 15.3986C28.2524 15.7476 28.494 16.3284 28.303 17.1805C28.022 18.4456 27.0387 19.2255 27.6947 19.6481C28.2074 19.9739 33.759 16.3039 35.5613 10.8711C36.3368 8.56161 37.528 14.9269 34.2605 18.8492Z" fill="white"/>
<path d="M8.53981 18.8493C13.795 25.1546 20.7935 27.9835 20.7935 27.9835C20.7935 27.9835 21.5155 23.3333 19.3297 20.0845C18.0851 18.2385 16.6607 17.7996 15.3346 15.4492C15.3113 15.402 15.2759 15.3614 15.2317 15.3313C15.1875 15.3013 15.1361 15.2829 15.0824 15.2778C15.0287 15.2727 14.9745 15.2812 14.9252 15.3024C14.8759 15.3236 14.833 15.3568 14.8008 15.3988C14.548 15.7478 14.3063 16.3285 14.4974 17.1806C14.7783 18.4458 15.7617 19.2256 15.1056 19.6482C14.5929 19.974 9.04131 16.304 7.23901 10.8712C6.46358 8.56173 5.27235 14.9271 8.53981 18.8493Z" fill="white"/>
</g>
<defs>
<clipPath id="clip0_2068_34173">
<rect width="44" height="28" fill="white"/>
</clipPath>
</defs>
</svg>
