<svg width="199" height="190" viewBox="0 0 199 190" fill="none" xmlns="http://www.w3.org/2000/svg">
<rect width="199" height="179" rx="16" fill="#FBFBFB"/>
<path d="M32 44C32 37.3726 37.3726 32 44 32H156C162.627 32 168 37.3726 168 44V200H32V44Z" fill="white"/>
<path d="M124.034 162.991H79.6562V105.457H110.379L114.609 111.745L124.034 118.941V162.991Z" fill="#EDEDED"/>
<path d="M124.034 118.941L113.471 112.868L110.38 105.457H101.846V162.991H124.034V118.941Z" fill="#CECECE"/>
<path d="M93.3105 140.854H115.499V144.225H93.3105V140.854Z" fill="#CDCDCD"/>
<path d="M101.846 140.854H115.5V144.225H101.846V140.854Z" fill="#929292"/>
<path d="M93.3105 150.967H105.258V154.338H93.3105V150.967Z" fill="#CDCDCD"/>
<path d="M93.3105 131.271H105.258V134.642H93.3105V131.271Z" fill="#CDCDCD"/>
<path d="M101.844 150.967H105.257V154.338H101.844V150.967Z" fill="#929292"/>
<path d="M101.844 131.271H105.257V134.642H101.844V131.271Z" fill="#929292"/>
<path d="M86.4844 140.854H89.898V144.225H86.4844V140.854Z" fill="#929292"/>
<path d="M86.4844 150.967H89.898V154.338H86.4844V150.967Z" fill="#929292"/>
<path d="M86.4844 131.271H89.898V134.642H86.4844V131.271Z" fill="#929292"/>
<path d="M124.033 118.941H110.379V105.457" fill="#EDEDED"/>
<path d="M125.232 182.302C123.731 183.237 122.096 184.077 120.328 184.822C118.56 185.567 116.825 186.2 115.125 186.721C109.267 188.516 103.367 189.187 97.4255 188.734C91.4834 188.281 85.9076 186.85 80.6978 184.442C75.4881 182.035 70.8142 178.75 66.6762 174.589C62.5382 170.428 59.3131 165.546 57.0007 159.943L62.6692 158.206C64.525 162.795 67.2066 166.826 70.7139 170.298C74.2212 173.77 78.187 176.559 82.6113 178.665C87.0356 180.77 91.7427 182.128 96.7326 182.737C101.722 183.346 106.618 183.05 111.42 181.851L102.023 176.993L104.831 171.756L125.232 182.302Z" fill="#004C4C"/>
<path d="M83.5801 70.9835C85.3663 70.5623 87.2556 70.2614 89.248 70.0809C91.2404 69.9003 93.164 69.8101 95.019 69.8101C101.408 69.8101 107.488 70.818 113.259 72.834C119.03 74.8499 124.132 77.6332 128.563 81.1836C132.994 84.7341 136.618 88.9165 139.435 93.7307C142.252 98.5449 143.935 103.75 144.485 109.347H138.301C137.889 104.773 136.481 100.471 134.076 96.4387C131.672 92.4068 128.597 88.8563 124.853 85.7872C121.109 82.7182 116.849 80.2358 112.074 78.3402C107.299 76.4446 102.336 75.3765 97.1831 75.1358L105.015 81.996L100.584 85.8775L83.5801 70.9835Z" fill="#004C4C"/>
<path d="M88.3133 60.144C87.7533 60.144 87.2333 60.04 86.7533 59.832C86.2733 59.616 85.8653 59.324 85.5293 58.956C85.1933 58.588 84.9453 58.164 84.7853 57.684L85.9853 57.18C86.2013 57.732 86.5173 58.156 86.9333 58.452C87.3493 58.748 87.8293 58.896 88.3733 58.896C88.6933 58.896 88.9733 58.848 89.2133 58.752C89.4533 58.648 89.6373 58.504 89.7653 58.32C89.9013 58.136 89.9693 57.924 89.9693 57.684C89.9693 57.356 89.8773 57.096 89.6933 56.904C89.5093 56.712 89.2373 56.56 88.8773 56.448L87.1973 55.92C86.5253 55.712 86.0133 55.396 85.6613 54.972C85.3093 54.54 85.1333 54.036 85.1333 53.46C85.1333 52.956 85.2573 52.516 85.5053 52.14C85.7533 51.756 86.0933 51.456 86.5253 51.24C86.9653 51.024 87.4653 50.916 88.0253 50.916C88.5613 50.916 89.0493 51.012 89.4893 51.204C89.9293 51.388 90.3053 51.644 90.6173 51.972C90.9373 52.3 91.1693 52.68 91.3133 53.112L90.1373 53.628C89.9613 53.156 89.6853 52.792 89.3093 52.536C88.9413 52.28 88.5133 52.152 88.0253 52.152C87.7293 52.152 87.4693 52.204 87.2453 52.308C87.0213 52.404 86.8453 52.548 86.7173 52.74C86.5973 52.924 86.5373 53.14 86.5373 53.388C86.5373 53.676 86.6293 53.932 86.8133 54.156C86.9973 54.38 87.2773 54.548 87.6533 54.66L89.2133 55.152C89.9253 55.368 90.4613 55.68 90.8213 56.088C91.1813 56.488 91.3613 56.988 91.3613 57.588C91.3613 58.084 91.2293 58.524 90.9653 58.908C90.7093 59.292 90.3533 59.596 89.8973 59.82C89.4413 60.036 88.9133 60.144 88.3133 60.144ZM92.5789 60V50.916H93.9349V54.78L93.7189 54.612C93.8789 54.204 94.1349 53.896 94.4869 53.688C94.8389 53.472 95.2469 53.364 95.7109 53.364C96.1909 53.364 96.6149 53.468 96.9829 53.676C97.3509 53.884 97.6389 54.172 97.8469 54.54C98.0549 54.908 98.1589 55.328 98.1589 55.8V60H96.8149V56.172C96.8149 55.844 96.7509 55.568 96.6229 55.344C96.5029 55.112 96.3349 54.936 96.1189 54.816C95.9029 54.688 95.6549 54.624 95.3749 54.624C95.1029 54.624 94.8549 54.688 94.6309 54.816C94.4149 54.936 94.2429 55.112 94.1149 55.344C93.9949 55.576 93.9349 55.852 93.9349 56.172V60H92.5789ZM101.314 60.144C100.874 60.144 100.486 60.068 100.15 59.916C99.8221 59.756 99.5661 59.54 99.3821 59.268C99.1981 58.988 99.1061 58.66 99.1061 58.284C99.1061 57.932 99.1821 57.616 99.3341 57.336C99.4941 57.056 99.7381 56.82 100.066 56.628C100.394 56.436 100.806 56.3 101.302 56.22L103.558 55.848V56.916L101.566 57.264C101.206 57.328 100.942 57.444 100.774 57.612C100.606 57.772 100.522 57.98 100.522 58.236C100.522 58.484 100.614 58.688 100.798 58.848C100.99 59 101.234 59.076 101.53 59.076C101.898 59.076 102.218 58.996 102.49 58.836C102.77 58.676 102.986 58.464 103.138 58.2C103.29 57.928 103.366 57.628 103.366 57.3V55.632C103.366 55.312 103.246 55.052 103.006 54.852C102.774 54.644 102.462 54.54 102.07 54.54C101.71 54.54 101.394 54.636 101.122 54.828C100.858 55.012 100.662 55.252 100.534 55.548L99.4061 54.984C99.5261 54.664 99.7221 54.384 99.9941 54.144C100.266 53.896 100.582 53.704 100.942 53.568C101.31 53.432 101.698 53.364 102.106 53.364C102.618 53.364 103.07 53.46 103.462 53.652C103.862 53.844 104.17 54.112 104.386 54.456C104.61 54.792 104.722 55.184 104.722 55.632V60H103.426V58.824L103.702 58.86C103.55 59.124 103.354 59.352 103.114 59.544C102.882 59.736 102.614 59.884 102.31 59.988C102.014 60.092 101.682 60.144 101.314 60.144ZM106.068 60V53.508H107.364V54.816L107.244 54.624C107.388 54.2 107.62 53.896 107.94 53.712C108.26 53.52 108.644 53.424 109.092 53.424H109.488V54.66H108.924C108.476 54.66 108.112 54.8 107.832 55.08C107.56 55.352 107.424 55.744 107.424 56.256V60H106.068ZM113.223 60.144C112.575 60.144 111.999 59.996 111.495 59.7C110.999 59.396 110.611 58.988 110.331 58.476C110.051 57.956 109.911 57.376 109.911 56.736C109.911 56.08 110.051 55.5 110.331 54.996C110.619 54.492 111.003 54.096 111.483 53.808C111.963 53.512 112.507 53.364 113.115 53.364C113.603 53.364 114.039 53.448 114.423 53.616C114.807 53.784 115.131 54.016 115.395 54.312C115.659 54.6 115.859 54.932 115.995 55.308C116.139 55.684 116.211 56.084 116.211 56.508C116.211 56.612 116.207 56.72 116.199 56.832C116.191 56.944 116.175 57.048 116.151 57.144H110.979V56.064H115.383L114.735 56.556C114.815 56.164 114.787 55.816 114.651 55.512C114.523 55.2 114.323 54.956 114.051 54.78C113.787 54.596 113.475 54.504 113.115 54.504C112.755 54.504 112.435 54.596 112.155 54.78C111.875 54.956 111.659 55.212 111.507 55.548C111.355 55.876 111.295 56.276 111.327 56.748C111.287 57.188 111.347 57.572 111.507 57.9C111.675 58.228 111.907 58.484 112.203 58.668C112.507 58.852 112.851 58.944 113.235 58.944C113.627 58.944 113.959 58.856 114.231 58.68C114.511 58.504 114.731 58.276 114.891 57.996L115.995 58.536C115.867 58.84 115.667 59.116 115.395 59.364C115.131 59.604 114.811 59.796 114.435 59.94C114.067 60.076 113.663 60.144 113.223 60.144Z" fill="#231F20"/>
</svg>
