<svg width="200" height="190" viewBox="0 0 200 190" fill="none" xmlns="http://www.w3.org/2000/svg">
<rect width="199" height="179" rx="16" fill="#EDEDED"/>
<path d="M32 44C32 37.3726 37.3726 32 44 32H200V200H32V44Z" fill="white"/>
<path d="M76 66C70.49 66 66 70.49 66 76C66 81.51 70.49 86 76 86C81.51 86 86 81.51 86 76C86 70.49 81.51 66 76 66ZM80.78 73.7L75.11 79.37C74.97 79.51 74.78 79.59 74.58 79.59C74.38 79.59 74.19 79.51 74.05 79.37L71.22 76.54C70.93 76.25 70.93 75.77 71.22 75.48C71.51 75.19 71.99 75.19 72.28 75.48L74.58 77.78L79.72 72.64C80.01 72.35 80.49 72.35 80.78 72.64C81.07 72.93 81.07 73.4 80.78 73.7Z" fill="#004C4C"/>
<rect x="100" y="64" width="100" height="5" rx="2.5" fill="#EDEDED"/>
<rect x="100" y="81" width="100" height="5" rx="2.5" fill="#EDEDED"/>
<rect x="100" y="98" width="100" height="5" rx="2.5" fill="#EDEDED"/>
<path d="M76 129C70.49 129 66 133.49 66 139C66 144.51 70.49 149 76 149C81.51 149 86 144.51 86 139C86 133.49 81.51 129 76 129ZM80.78 136.7L75.11 142.37C74.97 142.51 74.78 142.59 74.58 142.59C74.38 142.59 74.19 142.51 74.05 142.37L71.22 139.54C70.93 139.25 70.93 138.77 71.22 138.48C71.51 138.19 71.99 138.19 72.28 138.48L74.58 140.78L79.72 135.64C80.01 135.35 80.49 135.35 80.78 135.64C81.07 135.93 81.07 136.4 80.78 136.7Z" fill="#004C4C"/>
<rect x="100" y="127" width="100" height="5" rx="2.5" fill="#EDEDED"/>
<rect x="100" y="144" width="100" height="5" rx="2.5" fill="#EDEDED"/>
<rect x="100" y="161" width="100" height="5" rx="2.5" fill="#EDEDED"/>
</svg>
