<svg width="17" height="17" viewBox="0 0 17 17" fill="none" xmlns="http://www.w3.org/2000/svg">
<path d="M8.50065 0.583252C4.13857 0.583252 0.583984 4.13784 0.583984 8.49992C0.583984 12.862 4.13857 16.4166 8.50065 16.4166C12.8627 16.4166 16.4173 12.862 16.4173 8.49992C16.4173 4.13784 12.8627 0.583252 8.50065 0.583252ZM12.2848 6.67908L7.79607 11.1678C7.68523 11.2787 7.53482 11.342 7.37648 11.342C7.21815 11.342 7.06773 11.2787 6.9569 11.1678L4.71648 8.92742C4.4869 8.69783 4.4869 8.31783 4.71648 8.08825C4.94607 7.85867 5.32607 7.85867 5.55565 8.08825L7.37648 9.90908L11.4457 5.83992C11.6752 5.61034 12.0552 5.61034 12.2848 5.83992C12.5144 6.0695 12.5144 6.44159 12.2848 6.67908Z" fill="#004C4C"/>
</svg>
