<svg width="20" height="21" viewBox="0 0 20 21" fill="none" xmlns="http://www.w3.org/2000/svg">
<path d="M10.0007 0.046875C4.94982 0.046875 0.833984 4.53687 0.833984 10.0469C0.833984 15.5569 4.94982 20.0469 10.0007 20.0469C15.0515 20.0469 19.1673 15.5569 19.1673 10.0469C19.1673 4.53687 15.0515 0.046875 10.0007 0.046875ZM14.3823 7.74687L9.18482 13.4169C9.05648 13.5569 8.88232 13.6369 8.69898 13.6369C8.51565 13.6369 8.34148 13.5569 8.21315 13.4169L5.61898 10.5869C5.35315 10.2969 5.35315 9.81687 5.61898 9.52687C5.88482 9.23687 6.32482 9.23687 6.59065 9.52687L8.69898 11.8269L13.4107 6.68688C13.6765 6.39688 14.1165 6.39688 14.3823 6.68688C14.6482 6.97688 14.6482 7.44687 14.3823 7.74687Z" fill="white"/>
</svg>
