<svg width="199" height="179" viewBox="0 0 199 179" fill="none" xmlns="http://www.w3.org/2000/svg">
<path d="M101.914 0.390234L95.4387 2.06376L15.664 22.682L9.18893 24.3555C6.04599 25.1716 3.35438 27.2039 1.70462 30.0064C0.0548666 32.809 -0.418314 36.153 0.388893 39.3048L28.4664 148.426C29.2807 151.576 31.3084 154.274 34.1047 155.927C36.901 157.581 40.2376 158.055 43.3824 157.246L43.3991 157.241L136.09 133.285L136.107 133.281C139.25 132.464 141.942 130.432 143.592 127.63C145.241 124.827 145.714 121.483 144.907 118.331L116.83 9.20997C116.015 6.06001 113.988 3.36238 111.191 1.70893C108.395 0.0554781 105.059 -0.418769 101.914 0.390234Z" fill="#F2F2F2"/>
<path d="M102.795 3.81136L95.1259 5.79355L17.7394 25.7945L10.0702 27.7767C7.83203 28.3578 5.91527 29.805 4.74043 31.8008C3.56559 33.7966 3.22862 36.1779 3.80345 38.4224L31.881 147.544C32.4608 149.787 33.9048 151.708 35.8961 152.885C37.8875 154.063 40.2635 154.4 42.503 153.824L42.5197 153.82L135.211 129.863L135.228 129.859C137.466 129.278 139.383 127.831 140.558 125.835C141.732 123.839 142.069 121.458 141.495 119.213L113.417 10.0921C112.837 7.84897 111.393 5.92794 109.402 4.75048C107.411 3.57302 105.035 3.23528 102.795 3.81136Z" fill="white"/>
<path d="M97.0033 39.148L50.113 51.267C49.5892 51.4024 49.0333 51.3237 48.5675 51.0483C48.1017 50.7728 47.7641 50.3232 47.6291 49.7983C47.494 49.2734 47.5725 48.7163 47.8474 48.2494C48.1222 47.7826 48.5708 47.4442 49.0945 47.3089L95.9848 35.1898C96.5084 35.055 97.0639 35.134 97.5293 35.4095C97.9948 35.685 98.332 36.1344 98.467 36.659C98.602 37.1835 98.5236 37.7404 98.2492 38.2071C97.9747 38.6738 97.5266 39.0122 97.0033 39.148Z" fill="#F2F2F2"/>
<path d="M106.868 43.7221L51.8317 57.9465C51.308 58.0818 50.7521 58.0031 50.2863 57.7277C49.8204 57.4523 49.4829 57.0027 49.3478 56.4778C49.2128 55.9529 49.2913 55.3957 49.5661 54.9289C49.8409 54.462 50.2895 54.1237 50.8133 53.9883L105.849 39.764C106.373 39.6286 106.929 39.7073 107.395 39.9827C107.86 40.2582 108.198 40.7078 108.333 41.2327C108.468 41.7576 108.39 42.3147 108.115 42.7816C107.84 43.2485 107.391 43.5868 106.868 43.7221Z" fill="#F2F2F2"/>
<path d="M104.704 69.0815L57.8141 81.2006C57.5548 81.2676 57.2849 81.2828 57.0197 81.2453C56.7545 81.2077 56.4993 81.1182 56.2687 80.9818C56.038 80.8454 55.8364 80.6649 55.6754 80.4504C55.5144 80.2359 55.3971 79.9918 55.3302 79.7319C55.2634 79.472 55.2482 79.2014 55.2857 78.9357C55.3231 78.6699 55.4124 78.4141 55.5485 78.183C55.6846 77.9518 55.8648 77.7498 56.0788 77.5884C56.2928 77.427 56.5364 77.3094 56.7957 77.2424L103.686 65.1233C103.945 65.0563 104.215 65.0411 104.48 65.0787C104.746 65.1162 105.001 65.2057 105.231 65.3421C105.462 65.4785 105.664 65.6591 105.825 65.8735C105.986 66.088 106.103 66.3322 106.17 66.5921C106.237 66.852 106.252 67.1225 106.214 67.3883C106.177 67.654 106.088 67.9098 105.952 68.141C105.816 68.3721 105.635 68.5742 105.421 68.7356C105.207 68.8969 104.964 69.0145 104.704 69.0815Z" fill="#F2F2F2"/>
<path d="M114.569 73.6557L59.5329 87.8801C59.2736 87.9471 59.0036 87.9623 58.7384 87.9247C58.4733 87.8872 58.2181 87.7977 57.9874 87.6613C57.7568 87.5249 57.5552 87.3443 57.3942 87.1299C57.2331 86.9154 57.1159 86.6713 57.049 86.4114C56.9821 86.1515 56.967 85.8809 57.0044 85.6151C57.0419 85.3494 57.1312 85.0936 57.2673 84.8625C57.4033 84.6313 57.5835 84.4292 57.7975 84.2679C58.0115 84.1065 58.2551 83.9889 58.5144 83.9219L113.55 69.6976C114.074 69.5622 114.63 69.6409 115.096 69.9163C115.562 70.1918 115.899 70.6414 116.034 71.1663C116.169 71.6912 116.091 72.2483 115.816 72.7152C115.541 73.1821 115.092 73.5204 114.569 73.6557Z" fill="#F2F2F2"/>
<path d="M112.408 99.0151L65.5179 111.134C64.9943 111.269 64.4387 111.19 63.9732 110.915C63.5076 110.639 63.1703 110.19 63.0353 109.665C62.9003 109.14 62.9787 108.584 63.2532 108.117C63.5278 107.65 63.976 107.312 64.4994 107.176L111.39 95.0569C111.913 94.9216 112.469 95.0003 112.935 95.2757C113.401 95.5512 113.739 96.0008 113.874 96.5257C114.009 97.0505 113.93 97.6077 113.655 98.0746C113.381 98.5414 112.932 98.8798 112.408 99.0151Z" fill="#F2F2F2"/>
<path d="M122.272 103.589L67.2358 117.814C66.9764 117.881 66.7063 117.896 66.441 117.859C66.1756 117.822 65.9202 117.732 65.6894 117.596C65.4585 117.459 65.2568 117.279 65.0956 117.064C64.9345 116.85 64.8171 116.605 64.7502 116.345C64.6832 116.085 64.6681 115.815 64.7057 115.549C64.7432 115.283 64.8326 115.027 64.9689 114.796C65.1052 114.564 65.2856 114.362 65.4998 114.201C65.714 114.04 65.9578 113.922 66.2174 113.856L121.253 99.6312C121.777 99.4958 122.333 99.5745 122.799 99.8499C123.265 100.125 123.602 100.575 123.737 101.1C123.872 101.625 123.794 102.182 123.519 102.649C123.244 103.116 122.795 103.454 122.272 103.589Z" fill="#F2F2F2"/>
<path d="M42.1093 63.6932L25.5153 67.982C25.2642 68.0466 24.9978 68.0088 24.7745 67.8767C24.5512 67.7447 24.3893 67.5293 24.3243 67.2778L20.5151 52.4738C20.4507 52.2221 20.4884 51.9551 20.6202 51.7313C20.7519 51.5075 20.9668 51.3453 21.2178 51.2801L37.8118 46.9913C38.063 46.9267 38.3294 46.9645 38.5527 47.0966C38.776 47.2286 38.9379 47.444 39.0029 47.6955L42.812 62.4995C42.8765 62.7512 42.8387 63.0182 42.707 63.242C42.5752 63.4658 42.3603 63.628 42.1093 63.6932Z" fill="#E6E6E6"/>
<path d="M49.8105 93.627L33.2165 97.9159C32.9654 97.9805 32.6989 97.9426 32.4757 97.8106C32.2524 97.6785 32.0904 97.4631 32.0254 97.2116L28.2163 82.4076C28.1518 82.156 28.1896 81.8889 28.3214 81.6651C28.4531 81.4414 28.668 81.2791 28.919 81.2139L45.513 76.9251C45.7641 76.8605 46.0305 76.8984 46.2538 77.0304C46.4771 77.1624 46.639 77.3778 46.704 77.6294L50.5132 92.4333C50.5777 92.685 50.5399 92.952 50.4081 93.1758C50.2764 93.3996 50.0615 93.5619 49.8105 93.627Z" fill="#E6E6E6"/>
<path d="M57.5136 123.561L40.9196 127.849C40.6685 127.914 40.4021 127.876 40.1788 127.744C39.9555 127.612 39.7936 127.397 39.7286 127.145L35.9194 112.341C35.855 112.09 35.8927 111.823 36.0245 111.599C36.1562 111.375 36.3711 111.213 36.6221 111.148L53.2162 106.859C53.4673 106.794 53.7337 106.832 53.957 106.964C54.1803 107.096 54.3422 107.311 54.4072 107.563L58.2163 122.367C58.2808 122.619 58.243 122.886 58.1113 123.109C57.9795 123.333 57.7646 123.495 57.5136 123.561Z" fill="#E6E6E6"/>
<path d="M166.584 28.0513H70.826C67.5793 28.0549 64.4666 29.3492 62.1709 31.6501C59.8751 33.951 58.5837 37.0706 58.5801 40.3246V153.016C58.5837 156.27 59.8751 159.389 62.1709 161.69C64.4666 163.991 67.5793 165.286 70.826 165.289H166.584C169.831 165.286 172.944 163.991 175.24 161.69C177.535 159.389 178.827 156.27 178.83 153.016V40.3246C178.827 37.0706 177.535 33.951 175.24 31.6501C172.944 29.3492 169.831 28.0549 166.584 28.0513Z" fill="#E6E6E6"/>
<path d="M166.585 31.5845H70.8261C68.5141 31.5871 66.2974 32.5087 64.6626 34.1473C63.0277 35.7858 62.1081 38.0073 62.1055 40.3246V153.016C62.1081 155.333 63.0277 157.555 64.6626 159.193C66.2974 160.832 68.5141 161.753 70.8261 161.756H166.585C168.897 161.753 171.113 160.832 172.748 159.193C174.383 157.555 175.303 155.333 175.305 153.016V40.3246C175.303 38.0074 174.383 35.7858 172.748 34.1473C171.113 32.5088 168.897 31.5871 166.585 31.5845Z" fill="white"/>
<path d="M152.173 93.5081H103.749C103.481 93.5084 103.215 93.4557 102.968 93.3532C102.72 93.2506 102.495 93.1001 102.305 92.9103C102.116 92.7204 101.965 92.495 101.862 92.2469C101.76 91.9988 101.707 91.7328 101.707 91.4642C101.707 91.1956 101.76 90.9297 101.862 90.6816C101.965 90.4335 102.116 90.208 102.305 90.0182C102.495 89.8284 102.72 89.6779 102.968 89.5753C103.215 89.4728 103.481 89.4201 103.749 89.4204H152.173C152.713 89.421 153.232 89.6366 153.614 90.0198C153.995 90.4031 154.21 90.9226 154.21 91.4642C154.21 92.0059 153.995 92.5254 153.614 92.9087C153.232 93.2919 152.713 93.5075 152.173 93.5081Z" fill="#E6E6E6"/>
<path d="M160.585 100.406H103.749C103.481 100.406 103.215 100.354 102.968 100.251C102.72 100.149 102.495 99.998 102.305 99.8082C102.116 99.6184 101.965 99.393 101.862 99.1449C101.76 98.8967 101.707 98.6308 101.707 98.3622C101.707 98.0936 101.76 97.8276 101.862 97.5795C101.965 97.3314 102.116 97.106 102.305 96.9162C102.495 96.7264 102.72 96.5759 102.968 96.4733C103.215 96.3707 103.481 96.3181 103.749 96.3184H160.585C161.126 96.3184 161.645 96.5337 162.027 96.917C162.409 97.3003 162.624 97.8201 162.624 98.3622C162.624 98.9042 162.409 99.4241 162.027 99.8074C161.645 100.191 161.126 100.406 160.585 100.406Z" fill="#E6E6E6"/>
<path d="M152.173 124.421H103.749C103.481 124.421 103.215 124.369 102.968 124.266C102.72 124.163 102.495 124.013 102.305 123.823C102.116 123.633 101.965 123.408 101.862 123.16C101.76 122.912 101.707 122.646 101.707 122.377C101.707 122.108 101.76 121.843 101.862 121.594C101.965 121.346 102.116 121.121 102.305 120.931C102.495 120.741 102.72 120.591 102.968 120.488C103.215 120.386 103.481 120.333 103.749 120.333H152.173C152.714 120.333 153.233 120.549 153.615 120.932C153.997 121.315 154.212 121.835 154.212 122.377C154.212 122.919 153.997 123.439 153.615 123.822C153.233 124.206 152.714 124.421 152.173 124.421Z" fill="#E6E6E6"/>
<path d="M160.585 131.319H103.749C103.481 131.319 103.215 131.267 102.968 131.164C102.72 131.061 102.495 130.911 102.305 130.721C102.116 130.531 101.965 130.306 101.862 130.058C101.76 129.81 101.707 129.544 101.707 129.275C101.707 129.006 101.76 128.74 101.862 128.492C101.965 128.244 102.116 128.019 102.305 127.829C102.495 127.639 102.72 127.489 102.968 127.386C103.215 127.284 103.481 127.231 103.749 127.231H160.585C160.853 127.231 161.118 127.284 161.366 127.386C161.614 127.489 161.839 127.639 162.028 127.829C162.218 128.019 162.369 128.244 162.471 128.492C162.574 128.74 162.627 129.006 162.627 129.275C162.627 129.544 162.574 129.81 162.471 130.058C162.369 130.306 162.218 130.531 162.028 130.721C161.839 130.911 161.614 131.061 161.366 131.164C161.118 131.267 160.853 131.319 160.585 131.319Z" fill="#E6E6E6"/>
<path d="M92.9019 103.537H75.7649C75.5057 103.537 75.2571 103.434 75.0738 103.25C74.8905 103.066 74.7874 102.817 74.7871 102.557V87.2688C74.7874 87.009 74.8905 86.7599 75.0738 86.5762C75.2571 86.3924 75.5057 86.2891 75.7649 86.2888H92.9019C93.1611 86.2891 93.4097 86.3924 93.593 86.5762C93.7763 86.7599 93.8794 87.009 93.8797 87.2688V102.557C93.8794 102.817 93.7763 103.066 93.593 103.25C93.4097 103.434 93.1611 103.537 92.9019 103.537Z" fill="#E6E6E6"/>
<path d="M92.9019 134.45H75.7649C75.5057 134.45 75.2571 134.347 75.0738 134.163C74.8905 133.979 74.7874 133.73 74.7871 133.47V118.182C74.7874 117.922 74.8905 117.673 75.0738 117.489C75.2571 117.306 75.5057 117.202 75.7649 117.202H92.9019C93.1611 117.202 93.4097 117.306 93.593 117.489C93.7763 117.673 93.8794 117.922 93.8797 118.182V133.47C93.8794 133.73 93.7763 133.979 93.593 134.163C93.4097 134.347 93.1611 134.45 92.9019 134.45Z" fill="#E6E6E6"/>
<path d="M152.227 59.0955H116.526C115.985 59.0955 115.466 58.8801 115.084 58.4969C114.701 58.1136 114.486 57.5937 114.486 57.0516C114.486 56.5096 114.701 55.9897 115.084 55.6064C115.466 55.2231 115.985 55.0078 116.526 55.0078H152.227C152.768 55.0078 153.286 55.2231 153.669 55.6064C154.051 55.9897 154.266 56.5096 154.266 57.0516C154.266 57.5937 154.051 58.1136 153.669 58.4969C153.286 58.8801 152.768 59.0955 152.227 59.0955Z" fill="#CCCCCC"/>
<path d="M160.639 65.9934H116.526C116.258 65.9934 115.993 65.9406 115.745 65.8379C115.498 65.7351 115.273 65.5846 115.084 65.3948C114.894 65.205 114.744 64.9797 114.642 64.7317C114.539 64.4838 114.486 64.218 114.486 63.9496C114.486 63.6812 114.539 63.4154 114.642 63.1675C114.744 62.9195 114.894 62.6942 115.084 62.5044C115.273 62.3146 115.498 62.164 115.745 62.0613C115.993 61.9586 116.258 61.9058 116.526 61.9058H160.639C161.18 61.9058 161.699 62.1211 162.081 62.5044C162.463 62.8877 162.678 63.4075 162.678 63.9496C162.678 64.4917 162.463 65.0115 162.081 65.3948C161.699 65.7781 161.18 65.9934 160.639 65.9934Z" fill="#CCCCCC"/>
<path d="M108.624 74.353H75.7103C75.451 74.3527 75.2025 74.2494 75.0191 74.0656C74.8358 73.8819 74.7327 73.6328 74.7324 73.373V47.6284C74.7327 47.3686 74.8358 47.1195 75.0191 46.9358C75.2025 46.7521 75.451 46.6487 75.7103 46.6484H108.624C108.883 46.6487 109.132 46.7521 109.315 46.9358C109.498 47.1195 109.601 47.3686 109.602 47.6284V73.373C109.601 73.6328 109.498 73.8819 109.315 74.0656C109.132 74.2494 108.883 74.3527 108.624 74.353Z" fill="#004C4C"/>
</svg>
