<svg width="253" height="164" viewBox="0 0 253 164" fill="none" xmlns="http://www.w3.org/2000/svg">
<path d="M244.669 0.810547H8.33088C6.1222 0.81319 4.00474 1.69176 2.44297 3.25353C0.881203 4.8153 0.00264354 6.93275 0 9.14142V34.5736C0.00264354 36.7823 0.881203 38.8997 2.44297 40.4615C4.00474 42.0233 6.1222 42.9018 8.33088 42.9045H244.669C246.878 42.9018 248.995 42.0233 250.557 40.4615C252.119 38.8997 252.997 36.7823 253 34.5736V9.14142C252.997 6.93275 252.119 4.8153 250.557 3.25353C248.995 1.69176 246.878 0.81319 244.669 0.810547ZM252.123 34.5736C252.12 36.5496 251.334 38.4438 249.937 39.841C248.539 41.2383 246.645 42.0245 244.669 42.0274H8.33088C6.35489 42.0245 4.46066 41.2383 3.06343 39.841C1.66619 38.4438 0.879945 36.5496 0.877038 34.5736V9.14142C0.879945 7.16543 1.66619 5.27121 3.06343 3.87397C4.46066 2.47674 6.35489 1.69049 8.33088 1.68758H244.669C246.645 1.69049 248.539 2.47674 249.937 3.87397C251.334 5.27121 252.12 7.16543 252.123 9.14142V34.5736Z" fill="#3F3D56"/>
<path d="M244.669 102.975H8.33088C6.1222 102.973 4.00474 102.094 2.44297 100.532C0.881203 98.9705 0.00264354 96.853 0 94.6444V69.2127C0.00264354 67.0041 0.881203 64.8866 2.44297 63.3248C4.00474 61.7631 6.1222 60.8845 8.33088 60.8818H244.669C246.878 60.8845 248.995 61.7631 250.557 63.3248C252.119 64.8866 252.997 67.0041 253 69.2127V94.6444C252.997 96.853 252.119 98.9705 250.557 100.532C248.995 102.094 246.878 102.973 244.669 102.975ZM8.33088 61.7589C6.35468 61.7611 4.46008 62.5472 3.0627 63.9445C1.66532 65.3419 0.879285 67.2365 0.877038 69.2127V94.6444C0.878889 96.6208 1.66475 98.5158 3.06217 99.9135C4.45959 101.311 6.35442 102.097 8.33088 102.1H244.669C246.645 102.098 248.54 101.312 249.938 99.9142C251.335 98.5168 252.121 96.6222 252.123 94.6459V69.2127C252.121 67.2365 251.335 65.3419 249.938 63.9445C248.54 62.5472 246.646 61.7611 244.67 61.7589H8.33088Z" fill="#CCCCCC"/>
<path d="M244.669 163.047H8.33088C6.1222 163.044 4.00474 162.166 2.44297 160.604C0.881203 159.042 0.00264354 156.925 0 154.716V129.284C0.00264354 127.076 0.881203 124.958 2.44297 123.397C4.00474 121.835 6.1222 120.956 8.33088 120.954H244.669C246.878 120.956 248.995 121.835 250.557 123.397C252.119 124.958 252.997 127.076 253 129.284V154.716C252.997 156.925 252.119 159.042 250.557 160.604C248.995 162.166 246.878 163.044 244.669 163.047ZM8.33088 121.829C6.35468 121.831 4.46008 122.617 3.0627 124.014C1.66532 125.412 0.879285 127.306 0.877038 129.282V154.714C0.879153 156.69 1.66513 158.585 3.06253 159.983C4.45992 161.38 6.3546 162.166 8.33088 162.168H244.669C246.645 162.166 248.54 161.38 249.938 159.983C251.335 158.586 252.121 156.691 252.123 154.715V129.284C252.122 127.308 251.336 125.413 249.938 124.015C248.541 122.617 246.646 121.831 244.669 121.829H8.33088Z" fill="#CCCCCC"/>
<path d="M40.2658 36.3577C37.3979 36.3577 34.5945 35.5073 32.2099 33.914C29.8254 32.3207 27.9669 30.0561 26.8694 27.4065C25.7719 24.757 25.4848 21.8415 26.0442 19.0287C26.6037 16.216 27.9847 13.6323 30.0126 11.6044C32.0405 9.57654 34.6242 8.19554 37.4369 7.63604C40.2497 7.07655 43.1652 7.3637 45.8147 8.46118C48.4643 9.55866 50.7289 11.4172 52.3222 13.8017C53.9155 16.1862 54.7659 18.9897 54.7659 21.8575C54.7659 25.7032 53.2382 29.3914 50.5189 32.1107C47.7996 34.83 44.1114 36.3577 40.2658 36.3577Z" fill="#004C4C"/>
<path d="M223.259 33.696H68.4786C67.5483 33.696 66.656 33.3264 65.9982 32.6685C65.3403 32.0107 64.9707 31.1184 64.9707 30.1881C64.9707 29.2577 65.3403 28.3655 65.9982 27.7076C66.656 27.0498 67.5483 26.6802 68.4786 26.6802H223.259C224.189 26.6802 225.082 27.0498 225.74 27.7076C226.397 28.3655 226.767 29.2577 226.767 30.1881C226.767 31.1184 226.397 32.0107 225.74 32.6685C225.082 33.3264 224.189 33.696 223.259 33.696Z" fill="#CCCCCC"/>
<path d="M172.833 18.7878H68.4767C67.5463 18.7878 66.6541 18.4182 65.9962 17.7603C65.3383 17.1025 64.9687 16.2102 64.9688 15.2799C64.9687 14.3495 65.3383 13.4573 65.9962 12.7994C66.6541 12.1416 67.5463 11.772 68.4767 11.772H172.833C173.764 11.772 174.656 12.1416 175.314 12.7994C175.972 13.4573 176.341 14.3495 176.341 15.2799C176.341 16.2102 175.972 17.1025 175.314 17.7603C174.656 18.4182 173.764 18.7878 172.833 18.7878Z" fill="#CCCCCC"/>
<path d="M40.2658 96.429C37.3979 96.429 34.5945 95.5785 32.2099 93.9852C29.8254 92.392 27.9669 90.1274 26.8694 87.4778C25.7719 84.8282 25.4848 81.9128 26.0442 79.1C26.6037 76.2873 27.9847 73.7036 30.0126 71.6757C32.0405 69.6478 34.6242 68.2668 37.4369 67.7073C40.2497 67.1478 43.1652 67.435 45.8147 68.5325C48.4643 69.63 50.7289 71.4885 52.3222 73.873C53.9155 76.2575 54.7659 79.061 54.7659 81.9288C54.7659 85.7745 53.2382 89.4627 50.5189 92.182C47.7996 94.9013 44.1114 96.429 40.2658 96.429Z" fill="#E6E6E6"/>
<path d="M223.259 93.7673H68.4786C67.5483 93.7673 66.656 93.3977 65.9982 92.7398C65.3403 92.082 64.9707 91.1897 64.9707 90.2594C64.9707 89.329 65.3403 88.4368 65.9982 87.7789C66.656 87.121 67.5483 86.7515 68.4786 86.7515H223.259C224.189 86.7515 225.082 87.121 225.74 87.7789C226.397 88.4368 226.767 89.329 226.767 90.2594C226.767 91.1897 226.397 92.082 225.74 92.7398C225.082 93.3977 224.189 93.7673 223.259 93.7673Z" fill="#E6E6E6"/>
<path d="M172.833 78.8596H68.4767C67.5463 78.8596 66.6541 78.49 65.9962 77.8321C65.3383 77.1743 64.9688 76.282 64.9688 75.3517C64.9688 74.4213 65.3383 73.5291 65.9962 72.8712C66.6541 72.2133 67.5463 71.8438 68.4767 71.8438H172.833C173.764 71.8438 174.656 72.2133 175.314 72.8712C175.972 73.5291 176.341 74.4213 176.341 75.3517C176.341 76.282 175.972 77.1743 175.314 77.8321C174.656 78.49 173.764 78.8596 172.833 78.8596Z" fill="#E6E6E6"/>
<path d="M40.2658 156.499C37.3979 156.499 34.5945 155.649 32.2099 154.056C29.8254 152.462 27.9669 150.198 26.8694 147.548C25.7719 144.899 25.4848 141.983 26.0442 139.17C26.6037 136.358 27.9847 133.774 30.0126 131.746C32.0405 129.718 34.6242 128.337 37.4369 127.778C40.2497 127.218 43.1652 127.505 45.8147 128.603C48.4643 129.7 50.7289 131.559 52.3222 133.943C53.9155 136.328 54.7659 139.131 54.7659 141.999C54.7659 145.845 53.2382 149.533 50.5189 152.252C47.7996 154.972 44.1114 156.499 40.2658 156.499Z" fill="#E6E6E6"/>
<path d="M223.259 153.839H68.4786C67.5483 153.839 66.656 153.469 65.9982 152.811C65.3403 152.153 64.9707 151.261 64.9707 150.331C64.9707 149.4 65.3403 148.508 65.9982 147.85C66.656 147.192 67.5483 146.823 68.4786 146.823H223.259C224.189 146.823 225.082 147.192 225.74 147.85C226.397 148.508 226.767 149.4 226.767 150.331C226.767 151.261 226.397 152.153 225.74 152.811C225.082 153.469 224.189 153.839 223.259 153.839Z" fill="#E6E6E6"/>
<path d="M172.833 138.93H68.4767C67.5463 138.93 66.6541 138.561 65.9962 137.903C65.3383 137.245 64.9688 136.353 64.9688 135.422C64.9688 134.492 65.3383 133.6 65.9962 132.942C66.6541 132.284 67.5463 131.915 68.4767 131.915H172.833C173.764 131.915 174.656 132.284 175.314 132.942C175.972 133.6 176.341 134.492 176.341 135.422C176.341 136.353 175.972 137.245 175.314 137.903C174.656 138.561 173.764 138.93 172.833 138.93Z" fill="#E6E6E6"/>
<path d="M39.5231 26.9583C39.163 26.9592 38.8123 26.8428 38.5242 26.6267L38.5062 26.6132L34.7478 23.7384C34.5737 23.6049 34.4277 23.4385 34.3179 23.2486C34.2081 23.0587 34.1369 22.849 34.1081 22.6316C34.0794 22.4142 34.0938 22.1932 34.1505 21.9813C34.2071 21.7694 34.305 21.5708 34.4384 21.3967C34.5719 21.2226 34.7383 21.0765 34.9282 20.9668C35.1181 20.857 35.3277 20.7857 35.5452 20.757C35.7626 20.7283 35.9836 20.7426 36.1955 20.7993C36.4074 20.856 36.606 20.9538 36.7801 21.0873L39.2144 22.9542L44.9666 15.4494C45.2361 15.0982 45.634 14.8683 46.0728 14.8103C46.5117 14.7523 46.9557 14.871 47.3071 15.1403L47.2716 15.1902L47.3081 15.1403C47.659 15.4101 47.8885 15.8081 47.9464 16.2469C48.0042 16.6858 47.8857 17.1297 47.6167 17.4812L40.8506 26.3046C40.6939 26.5075 40.4925 26.6716 40.2621 26.7842C40.0317 26.8968 39.7785 26.9548 39.5221 26.9538L39.5231 26.9583Z" fill="white"/>
</svg>
