<svg width="269" height="230" viewBox="0 0 269 230" fill="none" xmlns="http://www.w3.org/2000/svg">
<path d="M144.943 199.743L148.105 189.453C144.301 185.269 139.533 182.077 134.215 180.152C139.411 188.756 134.376 199.979 136.474 209.808C137.152 212.868 138.51 215.736 140.448 218.201C142.386 220.665 144.854 222.662 147.669 224.044L152.466 229.984C154.981 225.593 156.513 220.709 156.958 215.668C157.402 210.628 156.748 205.551 155.04 200.788C154.056 198.125 152.74 195.597 151.123 193.263C148.272 196.612 144.943 199.743 144.943 199.743Z" fill="#F2F2F2"/>
<path d="M127.563 201.058L125.801 190.439C120.53 188.389 114.837 187.657 109.219 188.305C117.708 193.69 118.21 205.98 124.473 213.841C126.446 216.278 128.941 218.24 131.776 219.582C134.61 220.924 137.71 221.611 140.846 221.593L147.79 224.772C148.082 219.72 147.274 214.665 145.422 209.956C143.571 205.247 140.72 200.994 137.066 197.492C134.997 195.548 132.691 193.871 130.202 192.503C129.146 196.771 127.563 201.058 127.563 201.058Z" fill="#F2F2F2"/>
<path d="M60.3277 71.7345C60.2073 71.5819 60.0776 71.4369 59.9395 71.3001C59.9732 71.2537 60.007 71.2031 60.0408 71.1567L60.3277 71.7345Z" fill="#2F2E41"/>
<path d="M182.251 169.259C183.323 167.647 182.688 165.341 180.833 164.106C178.977 162.872 176.603 163.178 175.53 164.79C174.457 166.401 175.092 168.708 176.948 169.942C178.804 171.176 181.178 170.87 182.251 169.259Z" fill="#F2F2F2"/>
<path d="M160.479 109.114C161.552 107.502 160.917 105.195 159.061 103.961C157.205 102.727 154.831 103.033 153.759 104.645C152.686 106.256 153.321 108.563 155.177 109.797C157.033 111.031 159.407 110.725 160.479 109.114Z" fill="#F2F2F2"/>
<path d="M251.536 201.705C252.609 200.094 251.974 197.787 250.118 196.553C248.262 195.319 245.888 195.625 244.815 197.236C243.743 198.847 244.378 201.154 246.233 202.388C248.089 203.622 250.463 203.316 251.536 201.705Z" fill="#F2F2F2"/>
<path d="M67.4421 8.21276C68.5148 6.60134 67.8799 4.29462 66.0241 3.06057C64.1682 1.82653 61.7942 2.13246 60.7215 3.74388C59.6489 5.35531 60.2838 7.66202 62.1396 8.89606C63.9955 10.1301 66.3695 9.82419 67.4421 8.21276Z" fill="#F2F2F2"/>
<path d="M112.694 148.569C113.767 146.958 113.132 144.651 111.276 143.417C109.42 142.183 107.046 142.489 105.973 144.1C104.901 145.712 105.536 148.018 107.392 149.253C109.247 150.487 111.621 150.181 112.694 148.569Z" fill="#E6E6E6"/>
<path d="M21.855 141.104C18.4724 141.095 15.212 139.841 12.6971 137.583C10.1823 135.325 8.58936 132.222 8.22288 128.865L0.372344 56.0959C-0.0133819 52.4829 1.05264 48.8647 3.33652 46.0351C5.62041 43.2056 8.93565 41.3958 12.5549 41.0028L245.656 15.9528C249.276 15.5677 252.901 16.6315 255.736 18.9109C258.572 21.1903 260.385 24.4991 260.779 28.1114L268.63 100.881C269.015 104.494 267.949 108.112 265.665 110.942C263.381 113.771 260.066 115.581 256.447 115.974L23.3457 141.024C22.8506 141.078 22.353 141.104 21.855 141.104Z" fill="#E6E6E6"/>
<path d="M242.81 19.1075C242.372 19.1076 241.934 19.1313 241.499 19.1783L16.7029 43.4551C15.131 43.6248 13.6079 44.1034 12.2205 44.8636C10.8331 45.6237 9.6085 46.6505 8.61672 47.8853C7.62494 49.1201 6.88535 50.5388 6.4402 52.0603C5.99505 53.5817 5.85307 55.1763 6.02232 56.7528L9.99342 93.7437C10.6353 99.7238 12.4453 105.518 15.32 110.797C18.1947 116.075 22.0779 120.734 26.7477 124.508C31.4176 128.281 36.7828 131.095 42.5368 132.788C48.2909 134.482 54.3212 135.022 60.2835 134.378L218.353 117.307C224.297 116.665 230.056 114.856 235.303 111.981C240.55 109.106 245.181 105.223 248.931 100.554C252.682 95.8843 255.479 90.5196 257.162 84.7659C258.846 79.0122 259.383 72.9823 258.743 67.0204L254.757 29.8907C254.439 26.9332 253.044 24.1974 250.84 22.2075C248.635 20.2176 245.776 19.1138 242.81 19.1075Z" fill="white"/>
<path d="M195.12 57.5875L70.4211 70.799C70.0646 70.8372 69.7038 70.8059 69.3596 70.7069C69.0153 70.6079 68.6943 70.443 68.4148 70.2218C68.1354 70.0006 67.903 69.7274 67.7309 69.4177C67.5589 69.108 67.4506 68.768 67.4122 68.4172C67.3738 68.0663 67.406 67.7114 67.5072 67.3728C67.6083 67.0342 67.7762 66.7185 68.0014 66.4438C68.2266 66.1692 68.5046 65.9409 68.8196 65.772C69.1345 65.6031 69.4802 65.497 69.8368 65.4597L194.536 52.2482C194.892 52.21 195.253 52.2413 195.597 52.3403C195.941 52.4393 196.262 52.6042 196.542 52.8254C196.821 53.0466 197.054 53.3199 197.226 53.6295C197.398 53.9392 197.506 54.2792 197.544 54.6301C197.583 54.9809 197.551 55.3358 197.449 55.6744C197.348 56.013 197.18 56.3287 196.955 56.6034C196.73 56.8781 196.452 57.1064 196.137 57.2752C195.822 57.4441 195.476 57.5502 195.12 57.5875Z" fill="#004C4C"/>
<path d="M197.536 74.5542L72.0555 87.7661C71.3315 87.8424 70.6061 87.6342 70.0389 87.1875C69.4718 86.7407 69.1094 86.0919 69.0314 85.3839C68.9534 84.6758 69.1663 83.9664 69.6232 83.4119C70.0801 82.8573 70.7435 82.5029 71.4676 82.4266L196.948 69.2147C197.672 69.1384 198.397 69.3466 198.964 69.7933C199.532 70.2401 199.894 70.8889 199.972 71.597C200.05 72.305 199.837 73.0144 199.38 73.569C198.923 74.1235 198.26 74.478 197.536 74.5542Z" fill="#004C4C"/>
<path d="M88.3775 103.112L73.6868 104.732C72.9594 104.812 72.2306 104.593 71.6609 104.123C71.0911 103.653 70.727 102.97 70.6487 102.225C70.5703 101.48 70.7842 100.734 71.2432 100.15C71.7022 99.5664 72.3687 99.1935 73.0962 99.1133L87.7869 97.4932C88.1473 97.453 88.512 97.4859 88.86 97.5901C89.208 97.6943 89.5326 97.8678 89.8151 98.1005C90.0976 98.3333 90.3325 98.6208 90.5064 98.9467C90.6804 99.2725 90.7899 99.6303 90.8287 99.9995C90.8675 100.369 90.8349 100.742 90.7327 101.098C90.6305 101.455 90.4607 101.787 90.233 102.076C90.0054 102.365 89.7243 102.605 89.4059 102.783C89.0875 102.961 88.7381 103.072 88.3775 103.112Z" fill="#004C4C"/>
<path d="M16.8683 59.5036C19.7706 59.5036 22.1234 57.1524 22.1234 54.252C22.1234 51.3517 19.7706 49.0005 16.8683 49.0005C13.966 49.0005 11.6133 51.3517 11.6133 54.252C11.6133 57.1524 13.966 59.5036 16.8683 59.5036Z" fill="#3F3D56"/>
<path d="M237.984 34.4583C240.663 34.4583 242.834 32.288 242.834 29.6108C242.834 26.9335 240.663 24.7632 237.984 24.7632C235.305 24.7632 233.133 26.9335 233.133 29.6108C233.133 32.288 235.305 34.4583 237.984 34.4583Z" fill="#3F3D56"/>
<path d="M171.149 136.06C170.696 135.656 170.337 135.154 170.098 134.591C169.86 134.028 169.748 133.419 169.77 132.807C170.018 125.531 168.838 118.277 166.299 111.469C166.083 110.897 165.996 110.283 166.044 109.672C166.092 109.061 166.273 108.469 166.574 107.938C166.863 107.428 167.258 106.988 167.732 106.65C168.206 106.311 168.747 106.082 169.317 105.979C175.051 102.465 180.93 101.479 186.793 103.047C187.738 102.906 188.702 103.112 189.512 103.627C190.321 104.142 190.923 104.934 191.21 105.859C193.584 113.684 194.904 121.799 195.135 129.982C195.157 130.964 194.83 131.921 194.213 132.677C193.596 133.434 192.731 133.939 191.777 134.1L174.428 137.01C173.846 137.109 173.25 137.075 172.683 136.91C172.116 136.746 171.592 136.456 171.149 136.06Z" fill="#004C4C"/>
<path d="M172.747 115.237L187.098 112.494C187.216 112.471 187.329 112.422 187.431 112.35C187.532 112.277 187.62 112.181 187.69 112.069C187.76 111.957 187.81 111.829 187.837 111.695C187.864 111.56 187.868 111.42 187.849 111.284C187.829 111.147 187.787 111.017 187.723 110.899C187.66 110.782 187.578 110.68 187.48 110.599C187.383 110.519 187.273 110.462 187.157 110.43C187.04 110.399 186.919 110.395 186.801 110.418L172.45 113.161C172.213 113.207 172.001 113.361 171.861 113.587C171.721 113.814 171.664 114.096 171.704 114.37C171.743 114.645 171.875 114.891 172.07 115.053C172.266 115.216 172.509 115.282 172.747 115.237Z" fill="white"/>
<path d="M173.612 122.508L188.679 119.765C188.929 119.719 189.152 119.566 189.299 119.339C189.447 119.113 189.506 118.831 189.465 118.555C189.424 118.28 189.285 118.034 189.079 117.872C188.874 117.709 188.618 117.643 188.368 117.689L173.301 120.432C173.177 120.454 173.058 120.503 172.952 120.576C172.845 120.649 172.752 120.745 172.679 120.857C172.606 120.969 172.554 121.096 172.525 121.231C172.496 121.366 172.492 121.505 172.513 121.642C172.533 121.778 172.578 121.909 172.644 122.027C172.711 122.144 172.797 122.246 172.899 122.326C173.002 122.407 173.117 122.464 173.239 122.495C173.362 122.526 173.488 122.531 173.612 122.508Z" fill="white"/>
<path d="M175.173 129.779L189.524 127.036C189.762 126.99 189.974 126.837 190.115 126.61C190.255 126.384 190.312 126.102 190.272 125.826C190.233 125.551 190.101 125.305 189.905 125.143C189.709 124.98 189.465 124.914 189.227 124.96L174.876 127.703C174.758 127.726 174.646 127.775 174.544 127.848C174.443 127.921 174.355 128.016 174.285 128.129C174.216 128.241 174.166 128.368 174.139 128.503C174.112 128.637 174.108 128.777 174.127 128.913C174.147 129.049 174.189 129.18 174.252 129.297C174.315 129.414 174.398 129.516 174.495 129.597C174.592 129.677 174.702 129.735 174.818 129.766C174.934 129.797 175.055 129.802 175.173 129.779Z" fill="white"/>
</svg>
