<svg width="199" height="179" viewBox="0 0 199 179" fill="none" xmlns="http://www.w3.org/2000/svg">
<path d="M0.860985 174.447L0 174.432C0.0185083 173.55 0.556619 152.761 9.40303 147.016L9.89742 147.667C1.40792 153.181 0.865188 174.235 0.860985 174.447Z" fill="#F1F1F1"/>
<path d="M13.9553 146.753C16.3328 146.753 18.2601 144.97 18.2601 142.77C18.2601 140.571 16.3328 138.788 13.9553 138.788C11.5777 138.788 9.65039 140.571 9.65039 142.77C9.65039 144.97 11.5777 146.753 13.9553 146.753Z" fill="#F1F1F1"/>
<path d="M13.0844 156.832C10.8451 157.483 8.46047 157.578 6.16895 157.108C7.62395 155.395 9.58355 154.107 11.8117 153.4C14.0398 152.693 16.4414 152.597 18.7271 153.123C17.2297 154.795 15.2838 156.074 13.0844 156.832Z" fill="#F1F1F1"/>
<path d="M176.071 56.798H21.6512C20.418 56.7967 19.2358 56.343 18.3639 55.5363C17.4919 54.7296 17.0014 53.6359 17 52.4952V4.30289C17.0014 3.1621 17.4919 2.06841 18.3639 1.26175C19.2358 0.455095 20.418 0.00132321 21.6512 0H176.071C177.304 0.00130491 178.486 0.455072 179.358 1.26174C180.23 2.0684 180.721 3.1621 180.722 4.30289V52.4952C180.721 53.6359 180.23 54.7296 179.358 55.5363C178.486 56.343 177.304 56.7967 176.071 56.798Z" fill="#E5E5E5"/>
<path d="M82.1191 12.9092H41.1885V17.2121H82.1191V12.9092Z" fill="#004C4C"/>
<path d="M136.072 18.0726C137.613 18.0726 138.863 16.9167 138.863 15.4909C138.863 14.065 137.613 12.9092 136.072 12.9092C134.531 12.9092 133.281 14.065 133.281 15.4909C133.281 16.9167 134.531 18.0726 136.072 18.0726Z" fill="#004C4C"/>
<path d="M145.376 18.0726C146.917 18.0726 148.166 16.9167 148.166 15.4909C148.166 14.065 146.917 12.9092 145.376 12.9092C143.834 12.9092 142.585 14.065 142.585 15.4909C142.585 16.9167 143.834 18.0726 145.376 18.0726Z" fill="#004C4C"/>
<path d="M154.675 18.0726C156.216 18.0726 157.465 16.9167 157.465 15.4909C157.465 14.065 156.216 12.9092 154.675 12.9092C153.133 12.9092 151.884 14.065 151.884 15.4909C151.884 16.9167 153.133 18.0726 154.675 18.0726Z" fill="#004C4C"/>
<path d="M176.071 117.899H21.6512C20.418 117.898 19.2358 117.444 18.3639 116.638C17.4919 115.831 17.0014 114.737 17 113.596V65.4042C17.0014 64.2634 17.4919 63.1697 18.3639 62.3631C19.2358 61.5564 20.418 61.1026 21.6512 61.1013H176.071C177.304 61.1026 178.486 61.5564 179.358 62.3631C180.23 63.1697 180.721 64.2634 180.722 65.4042V113.596C180.721 114.737 180.23 115.831 179.358 116.638C178.486 117.444 177.304 117.898 176.071 117.899Z" fill="#E5E5E5"/>
<path d="M82.1191 74.0093H41.1885V78.3121H82.1191V74.0093Z" fill="#004C4C"/>
<path d="M136.072 79.1727C137.613 79.1727 138.863 78.0168 138.863 76.591C138.863 75.1651 137.613 74.0093 136.072 74.0093C134.531 74.0093 133.281 75.1651 133.281 76.591C133.281 78.0168 134.531 79.1727 136.072 79.1727Z" fill="#004C4C"/>
<path d="M145.376 79.1727C146.917 79.1727 148.166 78.0168 148.166 76.591C148.166 75.1651 146.917 74.0093 145.376 74.0093C143.834 74.0093 142.585 75.1651 142.585 76.591C142.585 78.0168 143.834 79.1727 145.376 79.1727Z" fill="#004C4C"/>
<path d="M154.675 79.1727C156.216 79.1727 157.465 78.0168 157.465 76.591C157.465 75.1651 156.216 74.0093 154.675 74.0093C153.133 74.0093 151.884 75.1651 151.884 76.591C151.884 78.0168 153.133 79.1727 154.675 79.1727Z" fill="#004C4C"/>
<path d="M176.071 179H21.6512C20.418 178.999 19.2358 178.545 18.3639 177.738C17.4919 176.932 17.0014 175.838 17 174.697V126.505C17.0014 125.364 17.4919 124.271 18.3639 123.464C19.2358 122.657 20.418 122.203 21.6512 122.202H176.071C177.304 122.203 178.486 122.657 179.358 123.464C180.23 124.271 180.721 125.364 180.722 126.505V174.697C180.721 175.838 180.23 176.932 179.358 177.738C178.486 178.545 177.304 178.999 176.071 179Z" fill="#E5E5E5"/>
<path d="M82.1191 135.111H41.1885V139.413H82.1191V135.111Z" fill="#004C4C"/>
<path d="M136.072 140.274C137.613 140.274 138.863 139.118 138.863 137.692C138.863 136.266 137.613 135.111 136.072 135.111C134.531 135.111 133.281 136.266 133.281 137.692C133.281 139.118 134.531 140.274 136.072 140.274Z" fill="#004C4C"/>
<path d="M145.376 140.274C146.917 140.274 148.166 139.118 148.166 137.692C148.166 136.266 146.917 135.111 145.376 135.111C143.834 135.111 142.585 136.266 142.585 137.692C142.585 139.118 143.834 140.274 145.376 140.274Z" fill="#004C4C"/>
<path d="M154.675 140.274C156.216 140.274 157.465 139.118 157.465 137.692C157.465 136.266 156.216 135.111 154.675 135.111C153.133 135.111 151.884 136.266 151.884 137.692C151.884 139.118 153.133 140.274 154.675 140.274Z" fill="#004C4C"/>
</svg>
