<svg width="199" height="190" viewBox="0 0 199 190" fill="none" xmlns="http://www.w3.org/2000/svg">
<rect width="199" height="179" rx="16" fill="#FBFBFB"/>
<path d="M32 44C32 37.3726 37.3726 32 44 32H156C162.627 32 168 37.3726 168 44V200H32V44Z" fill="white"/>
<path d="M146.488 91.5373H145.461V63.3276C145.461 61.1835 145.039 59.0603 144.221 57.0793C143.402 55.0984 142.202 53.2984 140.69 51.7823C139.177 50.2661 137.381 49.0634 135.405 48.2429C133.429 47.4223 131.31 47 129.171 47H69.5433C65.2231 47 61.0798 48.7202 58.025 51.7823C54.9701 54.8443 53.2539 58.9973 53.2539 63.3276V218.091C53.2539 220.235 53.6752 222.358 54.4939 224.339C55.3125 226.32 56.5123 228.12 58.025 229.636C59.5376 231.152 61.3333 232.355 63.3096 233.176C65.2859 233.996 67.4041 234.418 69.5433 234.418H129.171C133.491 234.418 137.635 232.698 140.69 229.636C143.744 226.574 145.46 222.421 145.46 218.091V111.618H146.488L146.488 91.5373Z" fill="#E6E6E6"/>
<path d="M129.828 51.2463H122.045C122.403 52.126 122.54 53.0804 122.443 54.0254C122.346 54.9705 122.019 55.8772 121.49 56.6657C120.962 57.4541 120.248 58.1002 119.411 58.5468C118.575 58.9935 117.641 59.2271 116.694 59.2271H82.5335C81.5857 59.227 80.6526 58.9934 79.8161 58.5467C78.9797 58.0999 78.2657 57.4539 77.7371 56.6655C77.2084 55.877 76.8813 54.9703 76.7846 54.0253C76.6879 53.0803 76.8245 52.126 77.1824 51.2463H69.9128C66.6865 51.2463 63.5924 52.531 61.311 54.8177C59.0297 57.1044 57.748 60.2058 57.748 63.4397V217.978C57.748 221.212 59.0297 224.313 61.311 226.6C63.5924 228.887 66.6865 230.171 69.9128 230.171H129.828C133.054 230.171 136.149 228.887 138.43 226.6C140.711 224.313 141.993 221.212 141.993 217.978V63.4394C141.993 60.2056 140.711 57.1042 138.43 54.8176C136.148 52.531 133.054 51.2463 129.828 51.2463Z" fill="white"/>
<path d="M92.2356 112.806C92.2354 111.726 92.5191 110.665 93.0581 109.73C93.5971 108.794 94.3724 108.018 95.306 107.478C94.3729 106.938 93.3143 106.653 92.2367 106.653C91.1591 106.653 90.1005 106.937 89.1672 107.477C88.234 108.017 87.459 108.794 86.9202 109.73C86.3813 110.665 86.0977 111.726 86.0977 112.806C86.0977 113.886 86.3813 114.947 86.9202 115.883C87.459 116.818 88.234 117.595 89.1672 118.135C90.1005 118.675 91.1591 118.959 92.2367 118.959C93.3143 118.959 94.3729 118.674 95.306 118.134C94.3725 117.595 93.5972 116.818 93.0581 115.883C92.5191 114.948 92.2354 113.887 92.2356 112.806Z" fill="#CCCCCC"/>
<path d="M99.9524 112.806C99.9521 111.726 100.236 110.665 100.775 109.73C101.314 108.794 102.089 108.018 103.023 107.478C102.09 106.938 101.031 106.653 99.9535 106.653C98.8759 106.653 97.8173 106.937 96.884 107.477C95.9508 108.017 95.1758 108.794 94.6369 109.73C94.0981 110.665 93.8145 111.726 93.8145 112.806C93.8145 113.886 94.0981 114.947 94.6369 115.883C95.1758 116.818 95.9508 117.595 96.884 118.135C97.8173 118.675 98.8759 118.959 99.9535 118.959C101.031 118.959 102.09 118.674 103.023 118.134C102.089 117.595 101.314 116.818 100.775 115.883C100.236 114.948 99.9522 113.887 99.9524 112.806Z" fill="#CCCCCC"/>
<path d="M107.494 118.959C110.884 118.959 113.632 116.204 113.632 112.806C113.632 109.408 110.884 106.653 107.494 106.653C104.104 106.653 101.355 109.408 101.355 112.806C101.355 116.204 104.104 118.959 107.494 118.959Z" fill="#004C4C"/>
<path d="M117.754 132.024H81.978C81.6374 132.024 81.3109 131.888 81.0701 131.646C80.8292 131.405 80.6938 131.078 80.6934 130.736V94.8765C80.6938 94.5352 80.8292 94.2079 81.0701 93.9665C81.3109 93.7251 81.6374 93.5893 81.978 93.5889H117.754C118.094 93.5893 118.421 93.7251 118.662 93.9665C118.903 94.2079 119.038 94.5352 119.038 94.8765V130.736C119.038 131.078 118.903 131.405 118.662 131.646C118.421 131.888 118.094 132.024 117.754 132.024ZM81.978 94.1042C81.7737 94.1044 81.5777 94.1859 81.4332 94.3307C81.2887 94.4756 81.2075 94.672 81.2073 94.8768V130.737C81.2075 130.941 81.2887 131.138 81.4332 131.283C81.5777 131.427 81.7737 131.509 81.978 131.509H117.754C117.958 131.509 118.154 131.427 118.299 131.283C118.443 131.138 118.524 130.941 118.525 130.737V94.8768C118.524 94.672 118.443 94.4756 118.299 94.3307C118.154 94.1859 117.958 94.1044 117.754 94.1042H81.978Z" fill="#CCCCCC"/>
<path d="M125.74 159.512H70.8711V160.027H125.74V159.512Z" fill="#CCCCCC"/>
<path d="M72.6039 156.296C73.5609 156.296 74.3367 155.518 74.3367 154.559C74.3367 153.6 73.5609 152.822 72.6039 152.822C71.6469 152.822 70.8711 153.6 70.8711 154.559C70.8711 155.518 71.6469 156.296 72.6039 156.296Z" fill="#004C4C"/>
<path d="M125.74 176.88H70.8711V177.395H125.74V176.88Z" fill="#CCCCCC"/>
<path d="M72.6039 173.664C73.5609 173.664 74.3367 172.887 74.3367 171.927C74.3367 170.968 73.5609 170.19 72.6039 170.19C71.6469 170.19 70.8711 170.968 70.8711 171.927C70.8711 172.887 71.6469 173.664 72.6039 173.664Z" fill="#004C4C"/>
<path d="M124.738 196.657H107.397C107.098 196.657 106.811 196.538 106.599 196.325C106.387 196.113 106.268 195.825 106.268 195.525V189.433C106.268 189.133 106.387 188.845 106.599 188.633C106.811 188.421 107.098 188.301 107.397 188.301H124.738C125.037 188.301 125.324 188.421 125.536 188.633C125.748 188.845 125.867 189.133 125.867 189.433V195.525C125.867 195.825 125.748 196.113 125.536 196.325C125.324 196.538 125.037 196.657 124.738 196.657Z" fill="#004C4C"/>
<path d="M78.2562 156.296C79.2132 156.296 79.989 155.518 79.989 154.559C79.989 153.6 79.2132 152.822 78.2562 152.822C77.2992 152.822 76.5234 153.6 76.5234 154.559C76.5234 155.518 77.2992 156.296 78.2562 156.296Z" fill="#004C4C"/>
<path d="M83.9086 156.296C84.8656 156.296 85.6414 155.518 85.6414 154.559C85.6414 153.6 84.8656 152.822 83.9086 152.822C82.9516 152.822 82.1758 153.6 82.1758 154.559C82.1758 155.518 82.9516 156.296 83.9086 156.296Z" fill="#004C4C"/>
<path d="M78.2562 173.664C79.2132 173.664 79.989 172.887 79.989 171.927C79.989 170.968 79.2132 170.19 78.2562 170.19C77.2992 170.19 76.5234 170.968 76.5234 171.927C76.5234 172.887 77.2992 173.664 78.2562 173.664Z" fill="#004C4C"/>
<path d="M83.9086 173.664C84.8656 173.664 85.6414 172.887 85.6414 171.927C85.6414 170.968 84.8656 170.19 83.9086 170.19C82.9516 170.19 82.1758 170.968 82.1758 171.927C82.1758 172.887 82.9516 173.664 83.9086 173.664Z" fill="#004C4C"/>
</svg>
