<svg width="199" height="190" viewBox="0 0 199 190" fill="none" xmlns="http://www.w3.org/2000/svg">
<rect width="199" height="179" rx="16" fill="#FBFBFB"/>
<path d="M32 44C32 37.3726 37.3726 32 44 32H156C162.627 32 168 37.3726 168 44V200H32V44Z" fill="white"/>
<path d="M79.0463 60V51.06H82.2983C82.8983 51.06 83.4263 51.172 83.8823 51.396C84.3383 51.612 84.6943 51.932 84.9503 52.356C85.2143 52.772 85.3463 53.272 85.3463 53.856C85.3463 54.472 85.1903 55 84.8783 55.44C84.5743 55.88 84.1623 56.2 83.6423 56.4L85.7063 60H84.0983L81.9023 56.1L82.8263 56.64H80.4623V60H79.0463ZM80.4623 55.38H82.3223C82.6503 55.38 82.9343 55.316 83.1743 55.188C83.4143 55.06 83.5983 54.884 83.7263 54.66C83.8623 54.428 83.9303 54.156 83.9303 53.844C83.9303 53.532 83.8623 53.264 83.7263 53.04C83.5983 52.808 83.4143 52.632 83.1743 52.512C82.9343 52.384 82.6503 52.32 82.3223 52.32H80.4623V55.38ZM89.2106 60.144C88.5626 60.144 87.9866 59.996 87.4826 59.7C86.9866 59.396 86.5986 58.988 86.3186 58.476C86.0386 57.956 85.8986 57.376 85.8986 56.736C85.8986 56.08 86.0386 55.5 86.3186 54.996C86.6066 54.492 86.9906 54.096 87.4706 53.808C87.9506 53.512 88.4946 53.364 89.1026 53.364C89.5906 53.364 90.0266 53.448 90.4106 53.616C90.7946 53.784 91.1186 54.016 91.3826 54.312C91.6466 54.6 91.8466 54.932 91.9826 55.308C92.1266 55.684 92.1986 56.084 92.1986 56.508C92.1986 56.612 92.1946 56.72 92.1866 56.832C92.1786 56.944 92.1626 57.048 92.1386 57.144H86.9666V56.064H91.3706L90.7226 56.556C90.8026 56.164 90.7746 55.816 90.6386 55.512C90.5106 55.2 90.3106 54.956 90.0386 54.78C89.7746 54.596 89.4626 54.504 89.1026 54.504C88.7426 54.504 88.4226 54.596 88.1426 54.78C87.8626 54.956 87.6466 55.212 87.4946 55.548C87.3426 55.876 87.2826 56.276 87.3146 56.748C87.2746 57.188 87.3346 57.572 87.4946 57.9C87.6626 58.228 87.8946 58.484 88.1906 58.668C88.4946 58.852 88.8386 58.944 89.2226 58.944C89.6146 58.944 89.9466 58.856 90.2186 58.68C90.4986 58.504 90.7186 58.276 90.8786 57.996L91.9826 58.536C91.8546 58.84 91.6546 59.116 91.3826 59.364C91.1186 59.604 90.7986 59.796 90.4226 59.94C90.0546 60.076 89.6506 60.144 89.2106 60.144ZM93.282 62.4V53.508H94.578V54.852L94.422 54.54C94.662 54.172 94.982 53.884 95.382 53.676C95.782 53.468 96.238 53.364 96.75 53.364C97.366 53.364 97.918 53.512 98.406 53.808C98.902 54.104 99.29 54.508 99.57 55.02C99.858 55.532 100.002 56.108 100.002 56.748C100.002 57.388 99.858 57.964 99.57 58.476C99.29 58.988 98.906 59.396 98.418 59.7C97.93 59.996 97.374 60.144 96.75 60.144C96.246 60.144 95.786 60.04 95.37 59.832C94.962 59.624 94.646 59.324 94.422 58.932L94.638 58.68V62.4H93.282ZM96.618 58.884C97.002 58.884 97.342 58.792 97.638 58.608C97.934 58.424 98.166 58.172 98.334 57.852C98.51 57.524 98.598 57.156 98.598 56.748C98.598 56.34 98.51 55.976 98.334 55.656C98.166 55.336 97.934 55.084 97.638 54.9C97.342 54.716 97.002 54.624 96.618 54.624C96.242 54.624 95.902 54.716 95.598 54.9C95.302 55.084 95.066 55.336 94.89 55.656C94.722 55.976 94.638 56.34 94.638 56.748C94.638 57.156 94.722 57.524 94.89 57.852C95.066 58.172 95.302 58.424 95.598 58.608C95.902 58.792 96.242 58.884 96.618 58.884ZM104.213 60.144C103.589 60.144 103.017 59.996 102.497 59.7C101.985 59.404 101.577 59 101.273 58.488C100.969 57.976 100.817 57.396 100.817 56.748C100.817 56.092 100.969 55.512 101.273 55.008C101.577 54.496 101.985 54.096 102.497 53.808C103.009 53.512 103.581 53.364 104.213 53.364C104.853 53.364 105.425 53.512 105.929 53.808C106.441 54.096 106.845 54.496 107.141 55.008C107.445 55.512 107.597 56.092 107.597 56.748C107.597 57.404 107.445 57.988 107.141 58.5C106.837 59.012 106.429 59.416 105.917 59.712C105.405 60 104.837 60.144 104.213 60.144ZM104.213 58.884C104.597 58.884 104.937 58.792 105.233 58.608C105.529 58.424 105.761 58.172 105.929 57.852C106.105 57.524 106.193 57.156 106.193 56.748C106.193 56.34 106.105 55.976 105.929 55.656C105.761 55.336 105.529 55.084 105.233 54.9C104.937 54.716 104.597 54.624 104.213 54.624C103.837 54.624 103.497 54.716 103.193 54.9C102.897 55.084 102.661 55.336 102.485 55.656C102.317 55.976 102.233 56.34 102.233 56.748C102.233 57.156 102.317 57.524 102.485 57.852C102.661 58.172 102.897 58.424 103.193 58.608C103.497 58.792 103.837 58.884 104.213 58.884ZM108.681 60V53.508H109.977V54.816L109.857 54.624C110.001 54.2 110.233 53.896 110.553 53.712C110.873 53.52 111.257 53.424 111.705 53.424H112.101V54.66H111.537C111.089 54.66 110.725 54.8 110.445 55.08C110.173 55.352 110.037 55.744 110.037 56.256V60H108.681ZM115.714 60.072C115.034 60.072 114.506 59.88 114.13 59.496C113.754 59.112 113.566 58.572 113.566 57.876V54.732H112.426V53.508H112.606C112.91 53.508 113.146 53.42 113.314 53.244C113.482 53.068 113.566 52.828 113.566 52.524V52.02H114.922V53.508H116.398V54.732H114.922V57.816C114.922 58.04 114.958 58.232 115.03 58.392C115.102 58.544 115.218 58.664 115.378 58.752C115.538 58.832 115.746 58.872 116.002 58.872C116.066 58.872 116.138 58.868 116.218 58.86C116.298 58.852 116.374 58.844 116.446 58.836V60C116.334 60.016 116.21 60.032 116.074 60.048C115.938 60.064 115.818 60.072 115.714 60.072ZM119.929 60.144C119.265 60.144 118.681 59.98 118.177 59.652C117.681 59.324 117.333 58.884 117.133 58.332L118.177 57.84C118.353 58.208 118.593 58.5 118.897 58.716C119.209 58.932 119.553 59.04 119.929 59.04C120.249 59.04 120.509 58.968 120.709 58.824C120.909 58.68 121.009 58.484 121.009 58.236C121.009 58.076 120.965 57.948 120.877 57.852C120.789 57.748 120.677 57.664 120.541 57.6C120.413 57.536 120.281 57.488 120.145 57.456L119.125 57.168C118.565 57.008 118.145 56.768 117.865 56.448C117.593 56.12 117.457 55.74 117.457 55.308C117.457 54.916 117.557 54.576 117.757 54.288C117.957 53.992 118.233 53.764 118.585 53.604C118.937 53.444 119.333 53.364 119.773 53.364C120.365 53.364 120.893 53.512 121.357 53.808C121.821 54.096 122.149 54.5 122.341 55.02L121.297 55.512C121.169 55.2 120.965 54.952 120.685 54.768C120.413 54.584 120.105 54.492 119.761 54.492C119.465 54.492 119.229 54.564 119.053 54.708C118.877 54.844 118.789 55.024 118.789 55.248C118.789 55.4 118.829 55.528 118.909 55.632C118.989 55.728 119.093 55.808 119.221 55.872C119.349 55.928 119.481 55.976 119.617 56.016L120.673 56.328C121.209 56.48 121.621 56.72 121.909 57.048C122.197 57.368 122.341 57.752 122.341 58.2C122.341 58.584 122.237 58.924 122.029 59.22C121.829 59.508 121.549 59.736 121.189 59.904C120.829 60.064 120.409 60.144 119.929 60.144Z" fill="#868686"/>
<rect x="48" y="79" width="41" height="5" rx="2.5" fill="#004C4C"/>
<rect x="48" y="102" width="100" height="5" rx="2.5" fill="#004C4C"/>
<rect x="48" y="125" width="60" height="5" rx="2.5" fill="#004C4C"/>
<rect x="48" y="148" width="31" height="5" rx="2.5" fill="#004C4C"/>
<rect x="83" y="148" width="31" height="5" rx="2.5" fill="#004C4C"/>
<rect x="48" y="171" width="95" height="5" rx="2.5" fill="#004C4C"/>
</svg>
