<svg width="204" height="251" viewBox="0 0 204 251" fill="none" xmlns="http://www.w3.org/2000/svg">
<path d="M84.0352 103.743C84.0352 96.0107 90.3032 89.7427 98.0352 89.7427H156.218C182.175 89.7427 203.218 110.785 203.218 136.743V235.999C203.218 243.731 196.95 249.999 189.218 249.999H98.0352C90.3032 249.999 84.0352 243.731 84.0352 235.999V103.743Z" fill="#065151"/>
<path d="M43.5488 58.895C43.5488 51.163 49.8168 44.895 57.5488 44.895H115.732C141.689 44.895 162.732 65.9376 162.732 91.895V191.152C162.732 198.884 156.464 205.152 148.732 205.152H57.5488C49.8169 205.152 43.5488 198.884 43.5488 191.152V58.895Z" fill="#065151"/>
<path d="M0.779297 14.0469C0.779297 6.3149 7.04731 0.046875 14.7793 0.046875H72.962C98.9194 0.046875 119.962 21.0895 119.962 47.0469V146.303C119.962 154.035 113.694 160.303 105.962 160.303H14.7793C7.04733 160.303 0.779297 154.035 0.779297 146.303V14.0469Z" fill="#065151"/>
<path d="M42.4502 160.567H7.57391C5.77249 160.565 4.04543 159.813 2.77163 158.478C1.49783 157.142 0.781325 155.331 0.779297 153.442V7.17178C0.781325 5.28279 1.49783 3.47178 2.77163 2.13606C4.04543 0.800344 5.77249 0.0490015 7.57391 0.046875H102.171L119.485 16.2574V45.7301H118.686V16.6327L101.866 0.885099H7.57391C5.98443 0.886984 4.46055 1.54993 3.33662 2.72851C2.21268 3.90708 1.58046 5.50503 1.57866 7.17178V153.442C1.58046 155.109 2.21268 156.706 3.33662 157.885C4.46055 159.064 5.98443 159.727 7.57391 159.728H42.4502V160.567Z" fill="white"/>
<path d="M119.086 16.8113H108.295C106.493 16.8092 104.766 16.0579 103.492 14.7222C102.219 13.3864 101.502 11.5754 101.5 9.68645V0.465987C101.5 0.354831 101.542 0.248228 101.617 0.16963C101.692 0.091031 101.794 0.046875 101.9 0.046875C102.006 0.046875 102.107 0.091031 102.182 0.16963C102.257 0.248228 102.299 0.354831 102.299 0.465987V9.68645C102.301 11.3532 102.933 12.9511 104.057 14.1297C105.181 15.3083 106.705 15.9712 108.295 15.9731H119.086C119.192 15.9731 119.294 16.0173 119.369 16.0959C119.444 16.1745 119.486 16.2811 119.486 16.3922C119.486 16.5034 119.444 16.61 119.369 16.6886C119.294 16.7672 119.192 16.8113 119.086 16.8113Z" fill="white"/>
<path d="M105.712 37.9766H14.5842C13.7362 37.9766 12.9229 38.3298 12.3232 38.9586C11.7236 39.5874 11.3867 40.4402 11.3867 41.3295C11.3867 42.2187 11.7236 43.0715 12.3232 43.7003C12.9229 44.3291 13.7362 44.6824 14.5842 44.6824H105.712C106.56 44.6824 107.373 44.3291 107.973 43.7003C108.573 43.0715 108.909 42.2187 108.909 41.3295C108.909 40.4402 108.573 39.5874 107.973 38.9586C107.373 38.3298 106.56 37.9766 105.712 37.9766Z" fill="#E6E6E6"/>
<path d="M59.7484 23.7271H14.5842C13.7362 23.7271 12.9229 24.0803 12.3232 24.7091C11.7236 25.3379 11.3867 26.1907 11.3867 27.0799C11.3867 27.9692 11.7236 28.822 12.3232 29.4508C12.9229 30.0796 13.7362 30.4328 14.5842 30.4328H59.7484C60.5964 30.4328 61.4097 30.0796 62.0093 29.4508C62.609 28.822 62.9459 27.9692 62.9459 27.0799C62.9459 26.1907 62.609 25.3379 62.0093 24.7091C61.4097 24.0803 60.5964 23.7271 59.7484 23.7271Z" fill="#E6E6E6"/>
<path d="M14.5842 66.0566C13.7362 66.0566 12.9229 66.4099 12.3232 67.0387C11.7236 67.6675 11.3867 68.5203 11.3867 69.4095C11.3867 70.2988 11.7236 71.1516 12.3232 71.7804C12.9229 72.4092 13.7362 72.7624 14.5842 72.7624H43.1455V66.0566H14.5842Z" fill="#E6E6E6"/>
<path d="M14.5842 51.8076C14.1643 51.8076 13.7485 51.8943 13.3606 52.0628C12.9726 52.2313 12.6201 52.4783 12.3232 52.7897C12.0263 53.101 11.7908 53.4706 11.6301 53.8774C11.4694 54.2842 11.3867 54.7202 11.3867 55.1605C11.3867 55.6008 11.4694 56.0368 11.6301 56.4436C11.7908 56.8504 12.0263 57.22 12.3232 57.5314C12.6201 57.8427 12.9726 58.0897 13.3606 58.2582C13.7485 58.4267 14.1643 58.5134 14.5842 58.5134H43.1455V51.8076H14.5842Z" fill="#E6E6E6"/>
<path d="M43.3448 137.096H17.7491C16.0006 137.094 14.3244 136.365 13.088 135.068C11.8517 133.772 11.1563 132.014 11.1543 130.181V94.9754C11.1563 93.142 11.8517 91.3842 13.088 90.0878C14.3244 88.7914 16.0006 88.0621 17.7491 88.0601H43.3448V137.096Z" fill="#E6E6E6"/>
<path d="M84.6162 205.621H49.7399C47.9385 205.619 46.2114 204.867 44.9376 203.532C43.6638 202.196 42.9473 200.385 42.9453 198.496V52.226C42.9473 50.337 43.6638 48.526 44.9376 47.1903C46.2114 45.8545 47.9385 45.1032 49.7399 45.1011H144.337L161.651 61.3116V89.1078H160.852V61.6869L144.032 45.9393H49.7399C48.1504 45.9412 46.6266 46.6041 45.5026 47.7827C44.3787 48.9613 43.7465 50.5592 43.7447 52.226V198.496C43.7465 200.163 44.3787 201.761 45.5026 202.939C46.6266 204.118 48.1504 204.781 49.7399 204.783H84.6162V205.621Z" fill="white"/>
<path d="M161.252 61.8655H150.461C148.659 61.8634 146.932 61.1121 145.658 59.7764C144.385 58.4406 143.668 56.6296 143.666 54.7406V45.5202C143.666 45.409 143.708 45.3024 143.783 45.2238C143.858 45.1452 143.96 45.1011 144.066 45.1011C144.172 45.1011 144.273 45.1452 144.348 45.2238C144.423 45.3024 144.465 45.409 144.465 45.5202V54.7406C144.467 56.4074 145.099 58.0053 146.223 59.1839C147.347 60.3625 148.871 61.0254 150.461 61.0273H161.252C161.358 61.0273 161.46 61.0715 161.535 61.1501C161.61 61.2287 161.652 61.3353 161.652 61.4464C161.652 61.5576 161.61 61.6642 161.535 61.7428C161.46 61.8214 161.358 61.8655 161.252 61.8655Z" fill="white"/>
<path d="M147.878 83.0312H56.7502C55.9022 83.0312 55.0889 83.3845 54.4892 84.0133C53.8896 84.6421 53.5527 85.4949 53.5527 86.3841C53.5527 87.2734 53.8896 88.1262 54.4892 88.755C55.0889 89.3838 55.9022 89.737 56.7502 89.737H147.878C148.726 89.737 149.539 89.3838 150.139 88.755C150.739 88.1262 151.075 87.2734 151.075 86.3841C151.075 85.4949 150.739 84.6421 150.139 84.0133C149.539 83.3845 148.726 83.0312 147.878 83.0312Z" fill="#E6E6E6"/>
<path d="M101.914 68.7808H56.7502C55.9022 68.7808 55.0889 69.134 54.4892 69.7628C53.8896 70.3916 53.5527 71.2444 53.5527 72.1337C53.5527 73.0229 53.8896 73.8757 54.4892 74.5045C55.0889 75.1333 55.9022 75.4865 56.7502 75.4865H101.914C102.762 75.4865 103.576 75.1333 104.175 74.5045C104.775 73.8757 105.112 73.0229 105.112 72.1337C105.112 71.2444 104.775 70.3916 104.175 69.7628C103.576 69.134 102.762 68.7808 101.914 68.7808Z" fill="#E6E6E6"/>
<path d="M147.878 83.0312H56.7502C55.9022 83.0312 55.0889 83.3845 54.4892 84.0133C53.8896 84.6421 53.5527 85.4949 53.5527 86.3841C53.5527 87.2734 53.8896 88.1262 54.4892 88.755C55.0889 89.3838 55.9022 89.737 56.7502 89.737H147.878C148.726 89.737 149.539 89.3838 150.139 88.755C150.739 88.1262 151.075 87.2734 151.075 86.3841C151.075 85.4949 150.739 84.6421 150.139 84.0133C149.539 83.3845 148.726 83.0312 147.878 83.0312Z" fill="#E6E6E6"/>
<path d="M101.914 68.7808H56.7502C55.9022 68.7808 55.0889 69.134 54.4892 69.7628C53.8896 70.3916 53.5527 71.2444 53.5527 72.1337C53.5527 73.0229 53.8896 73.8757 54.4892 74.5045C55.0889 75.1333 55.9022 75.4865 56.7502 75.4865H101.914C102.762 75.4865 103.576 75.1333 104.175 74.5045C104.775 73.8757 105.112 73.0229 105.112 72.1337C105.112 71.2444 104.775 70.3916 104.175 69.7628C103.576 69.134 102.762 68.7808 101.914 68.7808Z" fill="#E6E6E6"/>
<path d="M56.7502 111.111C55.9022 111.111 55.0889 111.465 54.4892 112.093C53.8896 112.722 53.5527 113.575 53.5527 114.464C53.5527 115.353 53.8896 116.206 54.4892 116.835C55.0889 117.464 55.9022 117.817 56.7502 117.817H85.3116V111.111H56.7502Z" fill="#E6E6E6"/>
<path d="M56.7502 96.8618C55.9022 96.8618 55.0889 97.2151 54.4892 97.8439C53.8896 98.4727 53.5527 99.3255 53.5527 100.215C53.5527 101.104 53.8896 101.957 54.4892 102.586C55.0889 103.214 55.9022 103.568 56.7502 103.568H85.3116V96.8618H56.7502Z" fill="#E6E6E6"/>
<path d="M56.7502 111.111C55.9022 111.111 55.0889 111.465 54.4892 112.093C53.8896 112.722 53.5527 113.575 53.5527 114.464C53.5527 115.353 53.8896 116.206 54.4892 116.835C55.0889 117.464 55.9022 117.817 56.7502 117.817H85.3116V111.111H56.7502Z" fill="#E6E6E6"/>
<path d="M56.7502 96.8618C55.9022 96.8618 55.0889 97.2151 54.4892 97.8439C53.8896 98.4727 53.5527 99.3255 53.5527 100.215C53.5527 101.104 53.8896 101.957 54.4892 102.586C55.0889 103.214 55.9022 103.568 56.7502 103.568H85.3116V96.8618H56.7502Z" fill="#E6E6E6"/>
<path d="M85.5128 182.151H59.917C58.1686 182.149 56.4923 181.42 55.256 180.123C54.0197 178.827 53.3242 177.069 53.3223 175.235V140.03C53.3242 138.197 54.0197 136.439 55.256 135.142C56.4923 133.846 58.1686 133.117 59.917 133.115H85.5128V182.151Z" fill="#E6E6E6"/>
<path d="M87.7672 90.5751C86.7738 91.2109 85.9529 92.1037 85.3832 93.1679C84.8134 94.2321 84.5141 95.4319 84.5137 96.6522V97.7H85.3131V96.6522C85.3147 95.2662 85.7522 93.9195 86.558 92.8208C87.3637 91.7221 88.4925 90.9327 89.7695 90.5751H87.7672ZM185.905 89.5273H91.3083C89.5069 89.5295 87.7799 90.2809 86.5061 91.6166C85.2323 92.9523 84.5158 94.7633 84.5137 96.6522V242.922C84.5162 244.811 85.2329 246.622 86.5066 247.957C87.7803 249.293 89.507 250.044 91.3083 250.047H196.425C198.226 250.044 199.953 249.293 201.227 247.957C202.5 246.622 203.217 244.811 203.22 242.922V105.739L185.905 89.5273ZM202.42 242.922C202.418 244.589 201.786 246.187 200.662 247.365C199.538 248.544 198.014 249.207 196.425 249.209H91.3083C89.7188 249.207 88.1951 248.544 87.0711 247.365C85.9472 246.187 85.315 244.589 85.313 242.922L85.3131 96.6522C85.3147 95.2662 85.7522 93.9195 86.558 92.8208C87.3637 91.7221 88.4925 90.9327 89.7695 90.5751C90.2714 90.4349 90.7888 90.3644 91.3083 90.3656H185.602L202.42 106.112V242.922ZM87.7672 90.5751C86.7738 91.2109 85.9529 92.1037 85.3832 93.1679C84.8134 94.2321 84.5141 95.4319 84.5137 96.6522V97.7H85.3131V96.6522C85.3147 95.2662 85.7522 93.9195 86.558 92.8208C87.3637 91.7221 88.4925 90.9327 89.7695 90.5751H87.7672Z" fill="white"/>
<path d="M202.82 106.292H192.029C190.228 106.29 188.501 105.538 187.227 104.203C185.953 102.867 185.236 101.056 185.234 99.1669V89.9465C185.234 89.8353 185.276 89.7287 185.351 89.6501C185.426 89.5715 185.528 89.5273 185.634 89.5273C185.74 89.5273 185.842 89.5715 185.917 89.6501C185.992 89.7287 186.034 89.8353 186.034 89.9465V99.1669C186.036 100.834 186.668 102.432 187.792 103.61C188.916 104.789 190.44 105.452 192.029 105.454H202.82C202.926 105.454 203.028 105.498 203.103 105.576C203.178 105.655 203.22 105.762 203.22 105.873C203.22 105.984 203.178 106.09 203.103 106.169C203.028 106.248 202.926 106.292 202.82 106.292Z" fill="white"/>
<path d="M189.446 134.163H98.3186C97.4705 134.163 96.6572 133.81 96.0576 133.181C95.458 132.552 95.1211 131.699 95.1211 130.81C95.1211 129.921 95.458 129.068 96.0576 128.439C96.6572 127.81 97.4705 127.457 98.3186 127.457H189.446C190.294 127.457 191.108 127.81 191.707 128.439C192.307 129.068 192.644 129.921 192.644 130.81C192.644 131.699 192.307 132.552 191.707 133.181C191.108 133.81 190.294 134.163 189.446 134.163Z" fill="#CCCCCC"/>
<path d="M143.483 119.913H98.3186C97.4705 119.913 96.6572 119.56 96.0576 118.931C95.458 118.302 95.1211 117.45 95.1211 116.56C95.1211 115.671 95.458 114.818 96.0576 114.19C96.6572 113.561 97.4705 113.208 98.3186 113.208H143.483C144.331 113.208 145.144 113.561 145.744 114.19C146.343 114.818 146.68 115.671 146.68 116.56C146.68 117.45 146.343 118.302 145.744 118.931C145.144 119.56 144.331 119.913 143.483 119.913Z" fill="#CCCCCC"/>
<path d="M189.446 162.243H98.3186C97.4705 162.243 96.6572 161.89 96.0576 161.261C95.458 160.632 95.1211 159.779 95.1211 158.89C95.1211 158.001 95.458 157.148 96.0576 156.519C96.6572 155.89 97.4705 155.537 98.3186 155.537H189.446C190.294 155.537 191.108 155.89 191.707 156.519C192.307 157.148 192.644 158.001 192.644 158.89C192.644 159.779 192.307 160.632 191.707 161.261C191.108 161.89 190.294 162.243 189.446 162.243Z" fill="#CCCCCC"/>
<path d="M143.483 147.993H98.3186C97.4705 147.993 96.6572 147.64 96.0576 147.011C95.458 146.383 95.1211 145.53 95.1211 144.64C95.1211 143.751 95.458 142.898 96.0576 142.27C96.6572 141.641 97.4705 141.288 98.3186 141.288H143.483C144.331 141.288 145.144 141.641 145.744 142.27C146.343 142.898 146.68 143.751 146.68 144.64C146.68 145.53 146.343 146.383 145.744 147.011C145.144 147.64 144.331 147.993 143.483 147.993Z" fill="#CCCCCC"/>
<path d="M186.216 226.577H101.483C99.735 226.575 98.0588 225.846 96.8224 224.549C95.5861 223.253 94.8906 221.495 94.8887 219.662V184.456C94.8906 182.623 95.5861 180.865 96.8224 179.569C98.0588 178.272 99.735 177.543 101.483 177.541H186.216C187.965 177.543 189.641 178.272 190.877 179.569C192.114 180.865 192.809 182.623 192.811 184.456V219.662C192.809 221.495 192.114 223.253 190.877 224.549C189.641 225.846 187.965 226.575 186.216 226.577Z" fill="#CCCCCC"/>
</svg>
