<svg width="53" height="52" viewBox="0 0 53 52" fill="none" xmlns="http://www.w3.org/2000/svg">
<rect y="0.046875" width="52.6949" height="51" rx="20" fill="#F3F5F7"/>
<path d="M38.8319 16.906L32.9037 11.1685C32.7371 11.007 32.5111 10.9162 32.2753 10.916H20.419C19.8687 10.916 19.3409 11.1276 18.9518 11.5042C18.5627 11.8808 18.3441 12.3916 18.3441 12.9241V15.506H15.6764C15.1261 15.506 14.5984 15.7176 14.2093 16.0942C13.8202 16.4708 13.6016 16.9816 13.6016 17.5141V38.1691C13.6016 38.7017 13.8202 39.2125 14.2093 39.5891C14.5984 39.9657 15.1261 40.1773 15.6764 40.1773H32.2753C32.8256 40.1773 33.3533 39.9657 33.7425 39.5891C34.1316 39.2125 34.3502 38.7017 34.3502 38.1691V35.5873H37.0178C37.5681 35.5873 38.0959 35.3757 38.485 34.9991C38.8741 34.6225 39.0927 34.1117 39.0927 33.5791V17.5141C39.0925 17.286 38.9987 17.0672 38.8319 16.906ZM32.5717 38.1691C32.5717 38.2452 32.5405 38.3182 32.4849 38.372C32.4293 38.4258 32.3539 38.456 32.2753 38.456H15.6764C15.5978 38.456 15.5224 38.4258 15.4668 38.372C15.4112 38.3182 15.38 38.2452 15.38 38.1691V17.5141C15.38 17.4381 15.4112 17.3651 15.4668 17.3113C15.5224 17.2575 15.5978 17.2273 15.6764 17.2273H27.1637L32.5717 22.4613V38.1691ZM37.3142 33.5791C37.3142 33.6552 37.283 33.7282 37.2274 33.782C37.1718 33.8358 37.0965 33.866 37.0178 33.866H34.3502V22.1041C34.35 21.876 34.2561 21.6572 34.0893 21.496L28.1612 15.7585C27.9945 15.597 27.7685 15.5062 27.5328 15.506H20.1226V12.9241C20.1226 12.8481 20.1538 12.7751 20.2094 12.7213C20.265 12.6675 20.3403 12.6373 20.419 12.6373H31.9063L37.3142 17.8713V33.5791ZM28.422 28.9891C28.422 29.2174 28.3283 29.4363 28.1615 29.5977C27.9948 29.7591 27.7686 29.8498 27.5328 29.8498H20.419C20.1831 29.8498 19.9569 29.7591 19.7902 29.5977C19.6234 29.4363 19.5297 29.2174 19.5297 28.9891C19.5297 28.7609 19.6234 28.542 19.7902 28.3806C19.9569 28.2192 20.1831 28.1285 20.419 28.1285H27.5328C27.7686 28.1285 27.9948 28.2192 28.1615 28.3806C28.3283 28.542 28.422 28.7609 28.422 28.9891ZM28.422 33.5791C28.422 33.8074 28.3283 34.0263 28.1615 34.1877C27.9948 34.3491 27.7686 34.4398 27.5328 34.4398H20.419C20.1831 34.4398 19.9569 34.3491 19.7902 34.1877C19.6234 34.0263 19.5297 33.8074 19.5297 33.5791C19.5297 33.3509 19.6234 33.132 19.7902 32.9706C19.9569 32.8092 20.1831 32.7185 20.419 32.7185H27.5328C27.7686 32.7185 27.9948 32.8092 28.1615 32.9706C28.3283 33.132 28.422 33.3509 28.422 33.5791Z" fill="#004C4C"/>
</svg>
