<svg width="53" height="52" viewBox="0 0 53 52" fill="none" xmlns="http://www.w3.org/2000/svg">
<rect y="0.046875" width="52.6949" height="51" rx="20" fill="#F3F5F7"/>
<path d="M24.8666 14.8049C24.8666 13.5217 24.3399 12.2909 23.4023 11.3835C22.4648 10.4761 21.1931 9.96631 19.8672 9.96631C18.5413 9.96631 17.2697 10.4761 16.3321 11.3835C15.3945 12.2909 14.8678 13.5217 14.8678 14.8049C14.8678 16.0882 15.3945 17.3189 16.3321 18.2264C17.2697 19.1338 18.5413 19.6436 19.8672 19.6436C21.1931 19.6436 22.4648 19.1338 23.4023 18.2264C24.3399 17.3189 24.8666 16.0882 24.8666 14.8049ZM16.6858 14.8049C16.6858 14.4006 16.768 14.0002 16.9279 13.6266C17.0878 13.253 17.3222 12.9136 17.6176 12.6277C17.913 12.3417 18.2637 12.1149 18.6497 11.9602C19.0357 11.8055 19.4494 11.7258 19.8672 11.7258C20.285 11.7258 20.6987 11.8055 21.0847 11.9602C21.4707 12.1149 21.8214 12.3417 22.1168 12.6277C22.4123 12.9136 22.6466 13.253 22.8065 13.6266C22.9664 14.0002 23.0487 14.4006 23.0487 14.8049C23.0487 15.6216 22.7135 16.4048 22.1168 16.9822C21.5202 17.5597 20.711 17.8841 19.8672 17.8841C19.0234 17.8841 18.2142 17.5597 17.6176 16.9822C17.0209 16.4048 16.6858 15.6216 16.6858 14.8049ZM13.5043 21.4031H21.1089C20.8107 21.9485 20.5889 22.5397 20.458 23.1626H13.5043C13.2632 23.1626 13.032 23.2552 12.8616 23.4202C12.6911 23.5852 12.5953 23.809 12.5953 24.0423V24.9221C12.5953 27.139 14.5933 29.5214 18.2238 30.0774C17.6384 30.4645 17.1512 30.98 16.8039 31.58C12.968 30.5753 10.7773 27.7144 10.7773 24.9221V24.0423C10.7773 23.3423 11.0646 22.671 11.5761 22.1761C12.0875 21.6811 12.7811 21.4031 13.5043 21.4031ZM23.2832 21.4031C24.1994 20.3298 25.5865 19.6436 27.1391 19.6436C28.2278 19.6417 29.2873 19.9846 30.1558 20.62C31.0243 21.2554 31.6543 22.1483 31.9494 23.1626C32.2126 24.0678 32.1977 25.0276 31.9068 25.9249C31.6158 26.8221 31.0613 27.618 30.3109 28.2153C29.5604 28.8127 28.6466 29.1858 27.6808 29.289C26.715 29.3921 25.7391 29.221 24.8721 28.7965C24.2046 28.4677 23.6219 27.9979 23.1671 27.4218C22.7124 26.8458 22.3972 26.1782 22.2448 25.4685C22.0925 24.7587 22.1069 24.0249 22.2869 23.3212C22.4669 22.6175 22.8062 21.962 23.2832 21.4031ZM24.2649 23.1626C24.0858 23.5281 23.9829 23.9242 23.962 24.3282C23.9411 24.7322 24.0027 25.1363 24.1431 25.5173C24.2836 25.8983 24.5002 26.2488 24.7806 26.5488C25.061 26.8488 25.3997 27.0924 25.7774 27.2657C26.1551 27.439 26.5644 27.5386 26.9818 27.5588C27.3993 27.579 27.8168 27.5195 28.2104 27.3836C28.6041 27.2476 28.9663 27.038 29.2762 26.7666C29.5862 26.4952 29.8379 26.1673 30.0169 25.8018C30.3786 25.0633 30.4223 24.2161 30.1384 23.4464C29.8546 22.6768 29.2665 22.0478 28.5035 21.6978C27.7405 21.3478 26.8651 21.3055 26.0698 21.5802C25.2746 21.8549 24.6265 22.4241 24.2649 23.1626ZM37.4743 31.58C37.128 30.9797 36.6418 30.4658 36.0544 30.0792C39.6831 29.5214 41.6829 27.1373 41.6829 24.9221V24.0423C41.6829 23.809 41.5871 23.5852 41.4166 23.4202C41.2462 23.2552 41.015 23.1626 40.7739 23.1626H33.8201C33.6917 22.5491 33.4731 21.9566 33.1711 21.4031H40.7739C41.4971 21.4031 42.1907 21.6811 42.7021 22.1761C43.2135 22.671 43.5009 23.3423 43.5009 24.0423V24.9221C43.5009 27.7144 41.3084 30.5736 37.4743 31.58ZM35.2963 31.7331C34.8002 31.3115 34.1622 31.0794 33.502 31.0803H20.7762C20.4178 31.0794 20.0628 31.147 19.7315 31.2793C19.4002 31.4116 19.0992 31.606 18.8458 31.8513C18.5924 32.0965 18.3916 32.3878 18.2549 32.7085C18.1182 33.0291 18.0483 33.3727 18.0492 33.7196V34.5993C18.0492 38.0673 21.4307 41.6373 27.1391 41.6373C32.8475 41.6373 36.229 38.0673 36.229 34.5993V33.7196C36.229 32.9278 35.869 32.2169 35.2963 31.7313V31.7331ZM19.8672 33.7196C19.8672 33.4862 19.963 33.2625 20.1334 33.0975C20.3039 32.9325 20.5351 32.8398 20.7762 32.8398H33.502C33.7431 32.8398 33.9743 32.9325 34.1448 33.0975C34.3152 33.2625 34.411 33.4862 34.411 33.7196V34.5993C34.411 37.1295 31.8076 39.8778 27.1391 39.8778C22.4705 39.8778 19.8672 37.1295 19.8672 34.5993V33.7196ZM34.411 9.96631C35.7369 9.96631 37.0085 10.4761 37.9461 11.3835C38.8837 12.2909 39.4104 13.5217 39.4104 14.8049C39.4104 16.0882 38.8837 17.3189 37.9461 18.2264C37.0085 19.1338 35.7369 19.6436 34.411 19.6436C33.0851 19.6436 31.8134 19.1338 30.8759 18.2264C29.9383 17.3189 29.4116 16.0882 29.4116 14.8049C29.4116 13.5217 29.9383 12.2909 30.8759 11.3835C31.8134 10.4761 33.0851 9.96631 34.411 9.96631ZM34.411 11.7258C33.5672 11.7258 32.758 12.0502 32.1614 12.6277C31.5647 13.2051 31.2295 13.9883 31.2295 14.8049C31.2295 15.6216 31.5647 16.4048 32.1614 16.9822C32.758 17.5597 33.5672 17.8841 34.411 17.8841C35.2548 17.8841 36.064 17.5597 36.6606 16.9822C37.2572 16.4048 37.5924 15.6216 37.5924 14.8049C37.5924 13.9883 37.2572 13.2051 36.6606 12.6277C36.064 12.0502 35.2548 11.7258 34.411 11.7258Z" fill="#004C4C"/>
</svg>
