<svg width="36" height="35" viewBox="0 0 36 35" fill="none" xmlns="http://www.w3.org/2000/svg">
<g clip-path="url(#clip0_2126_13838)">
<path d="M29.4068 8.54683H16.155L13.9008 5.54349C13.7191 5.30285 13.4812 5.10724 13.2064 4.97264C12.9317 4.83804 12.6279 4.76828 12.32 4.76905H5.98682C5.46921 4.76905 4.97279 4.96806 4.60678 5.32229C4.24078 5.67653 4.03516 6.15697 4.03516 6.65794V27.4357C4.03516 27.9367 4.24078 28.4171 4.60678 28.7714C4.97279 29.1256 5.46921 29.3246 5.98682 29.3246H29.4068C29.9244 29.3246 30.4208 29.1256 30.7868 28.7714C31.1528 28.4171 31.3584 27.9367 31.3584 27.4357V10.4357C31.3584 9.93475 31.1528 9.45431 30.7868 9.10007C30.4208 8.74583 29.9244 8.54683 29.4068 8.54683ZM29.4068 27.4357H5.98682V12.3246H13.1201C13.6378 12.3246 14.1342 12.1256 14.5002 11.7714C14.8662 11.4171 15.0718 10.9367 15.0718 10.4357H5.98682V6.65794H12.32L14.8669 10.0485C14.9577 10.1688 15.0767 10.2666 15.2141 10.3339C15.3514 10.4012 15.5033 10.4361 15.6573 10.4357H29.4068V27.4357Z" fill="#004C4C"/>
<path d="M21.5127 21.2778C20.9829 21.2861 20.4778 21.4966 20.1075 21.8634L14.5257 19.3512V18.9356L20.0489 16.4328C20.3269 16.7132 20.6845 16.9076 21.0766 16.9912C21.4687 17.0749 21.8776 17.0441 22.2516 16.9028C22.6257 16.7615 22.948 16.5161 23.1778 16.1975C23.4077 15.8789 23.5347 15.5014 23.5429 15.1129C23.5511 14.7244 23.4401 14.3423 23.2238 14.0149C23.0076 13.6875 22.6959 13.4295 22.3282 13.2735C21.9604 13.1176 21.5531 13.0707 21.1579 13.1388C20.7626 13.2069 20.397 13.387 20.1075 13.6562C19.7172 14.0243 19.4928 14.5266 19.483 15.0539V15.2712L13.9793 17.7834C13.7027 17.5026 13.3463 17.3073 12.9552 17.2222C12.5641 17.1372 12.1557 17.1661 11.7815 17.3054C11.4073 17.4447 11.0842 17.6881 10.8528 18.0049C10.6214 18.3218 10.4921 18.6978 10.4812 19.0856C10.4703 19.4735 10.5784 19.8558 10.7917 20.1843C11.005 20.5128 11.3141 20.7728 11.6799 20.9315C12.0457 21.0902 12.4519 21.1405 12.8472 21.0761C13.2425 21.0117 13.6093 20.8354 13.9012 20.5695L13.9793 20.4939L19.5122 23.0062V23.2895C19.5142 23.6799 19.6357 24.061 19.8614 24.3845C20.0871 24.7081 20.4069 24.9596 20.7803 25.1073C21.1537 25.2549 21.5639 25.2921 21.9592 25.2141C22.3544 25.1361 22.7169 24.9465 23.0007 24.6691C23.2846 24.3917 23.4771 24.0391 23.5539 23.6558C23.6307 23.2726 23.5883 22.8759 23.4322 22.5159C23.2761 22.156 23.0131 21.8489 22.6767 21.6336C22.3402 21.4182 21.9453 21.3043 21.542 21.3062L21.5127 21.2778Z" fill="#004C4C"/>
</g>
<defs>
<clipPath id="clip0_2126_13838">
<rect width="35.1299" height="34" fill="white" transform="translate(0.130859 0.046875)"/>
</clipPath>
</defs>
</svg>
