<svg width="12" height="20" viewBox="0 0 12 20" fill="none" xmlns="http://www.w3.org/2000/svg">
<path d="M10.975 -0.00511213L8.25837 -0.00927734C5.20627 -0.00927734 3.23387 1.92442 3.23387 4.91734V7.18884H0.502367C0.266333 7.18884 0.0751953 7.37169 0.0751953 7.59724V10.8884C0.0751953 11.1139 0.266551 11.2966 0.502367 11.2966H3.23387V19.6012C3.23387 19.8267 3.42501 20.0094 3.66104 20.0094H7.22487C7.46091 20.0094 7.65205 19.8265 7.65205 19.6012V11.2966H10.8458C11.0818 11.2966 11.273 11.1139 11.273 10.8884L11.2743 7.59724C11.2743 7.48894 11.2292 7.38523 11.1492 7.30859C11.0692 7.23195 10.9602 7.18884 10.8469 7.18884H7.65205V5.26326C7.65205 4.33775 7.88285 3.86791 9.14453 3.86791L10.9746 3.86729C11.2104 3.86729 11.4016 3.68443 11.4016 3.4591V0.403079C11.4016 0.177949 11.2106 -0.00469561 10.975 -0.00511213Z" fill="#868686"/>
</svg>
