<svg width="20" height="20" viewBox="0 0 20 20" fill="none" xmlns="http://www.w3.org/2000/svg">
<path d="M13.5829 0.560547H6.17402C2.76473 0.560547 0 3.20242 0 6.46022V13.5398C0 16.7976 2.76473 19.4395 6.17402 19.4395H13.5829C16.9921 19.4395 19.7569 16.7976 19.7569 13.5398V6.46022C19.7569 3.20242 16.9921 0.560547 13.5829 0.560547ZM17.9047 13.5398C17.9047 15.8171 15.966 17.6696 13.5829 17.6696H6.17402C3.79085 17.6696 1.85221 15.8171 1.85221 13.5398V6.46022C1.85221 4.18295 3.79085 2.33045 6.17402 2.33045H13.5829C15.966 2.33045 17.9047 4.18295 17.9047 6.46022V13.5398Z" fill="#868686"/>
<path d="M9.88941 5.28979C7.16173 5.28979 4.9502 7.40306 4.9502 10.0095C4.9502 12.616 7.16173 14.7293 9.88941 14.7293C12.6171 14.7293 14.8286 12.616 14.8286 10.0095C14.8286 7.40306 12.6171 5.28979 9.88941 5.28979ZM9.88941 12.9594C8.18785 12.9594 6.8024 11.6355 6.8024 10.0095C6.8024 8.3824 8.18785 7.0597 9.88941 7.0597C11.591 7.0597 12.9764 8.3824 12.9764 10.0095C12.9764 11.6355 11.591 12.9594 9.88941 12.9594Z" fill="#868686"/>
<path d="M15.1754 5.56765C15.5399 5.56765 15.8353 5.28536 15.8353 4.93715C15.8353 4.58893 15.5399 4.30664 15.1754 4.30664C14.811 4.30664 14.5156 4.58893 14.5156 4.93715C14.5156 5.28536 14.811 5.56765 15.1754 5.56765Z" fill="#868686"/>
</svg>
