<svg width="20" height="18" viewBox="0 0 20 18" fill="none" xmlns="http://www.w3.org/2000/svg">
<path d="M19.0707 17.7377V17.737H19.0753V11.3135C19.0753 8.17114 18.3674 5.75049 14.5229 5.75049C12.6747 5.75049 11.4345 6.71962 10.9281 7.63841H10.8747V6.04386H7.22949V17.737H11.0251V11.947C11.0251 10.4225 11.3275 8.94834 13.3032 8.94834C15.2499 8.94834 15.2789 10.6881 15.2789 12.0448V17.7377H19.0707Z" fill="#868686"/>
<path d="M1.04785 6.06494H4.84805V17.7581H1.04785V6.06494Z" fill="#868686"/>
<path d="M2.95783 0.241943C1.74278 0.241943 0.756836 1.18408 0.756836 2.34514C0.756836 3.50621 1.74278 4.46805 2.95783 4.46805C4.17289 4.46805 5.15883 3.50621 5.15883 2.34514C5.15807 1.18408 4.17213 0.241943 2.95783 0.241943V0.241943Z" fill="#868686"/>
</svg>
