<svg width="23" height="18" viewBox="0 0 23 18" fill="none" xmlns="http://www.w3.org/2000/svg">
<path d="M22.9624 2.3156C22.1234 2.66728 21.2295 2.90038 20.2974 3.01356C21.2562 2.46651 21.9881 1.60687 22.3321 0.570711C21.4381 1.08003 20.4511 1.43979 19.3992 1.64055C18.5503 0.776865 17.3405 0.241943 16.0207 0.241943C13.46 0.241943 11.3985 2.22802 11.3985 4.66279C11.3985 5.01312 11.4295 5.34997 11.5056 5.67065C7.66039 5.49145 4.2579 3.73038 1.97218 1.04769C1.57313 1.70927 1.33906 2.46651 1.33906 3.2817C1.33906 4.81235 2.16395 6.16919 3.39353 6.95473C2.65042 6.94126 1.92142 6.7351 1.30381 6.41038C1.30381 6.42385 1.30381 6.44137 1.30381 6.45889C1.30381 8.60665 2.90705 10.3906 5.00946 10.8016C4.63298 10.8999 4.22265 10.9471 3.79681 10.9471C3.50069 10.9471 3.20176 10.9309 2.92115 10.8716C3.52043 12.6219 5.22097 13.9087 7.24301 13.9505C5.66937 15.1268 3.67131 15.8355 1.50827 15.8355C1.12896 15.8355 0.765164 15.8193 0.401367 15.7749C2.45019 17.0374 4.87833 17.7583 7.49682 17.7583C16.008 17.7583 20.6612 11.0212 20.6612 5.18154C20.6612 4.98617 20.6541 4.79753 20.6443 4.61024C21.5622 3.98774 22.3335 3.21028 22.9624 2.3156Z" fill="#868686"/>
</svg>
