<svg width="178" height="24" viewBox="0 0 178 24" fill="none" xmlns="http://www.w3.org/2000/svg">
<g clip-path="url(#clip0_2288_90955)">
<path d="M31.9427 12.4657C32.2537 11.3719 32.3 10.2232 32.078 9.10916C31.856 7.99514 31.3716 6.94601 30.6628 6.04368C29.9539 5.14136 29.0397 4.41026 27.9916 3.90748C26.9435 3.4047 25.7899 3.14385 24.6207 3.1453C22.9579 3.1453 21.2842 4.51484 19.8851 5.59926L18.3439 6.79703L16.8026 5.60043C15.4023 4.51484 13.7286 3.14646 12.067 3.14646C10.8981 3.14499 9.74475 3.40568 8.69684 3.90818C7.64892 4.41068 6.73483 5.14141 6.02591 6.04332C5.31699 6.94524 4.83242 7.99395 4.61002 9.1076C4.38762 10.2213 4.43341 11.3697 4.74381 12.4634C3.6379 10.8841 3.1523 8.97234 3.37521 7.07521C3.59813 5.17809 4.51476 3.42147 5.95863 2.12443C7.4025 0.82739 9.27783 0.0759548 11.244 0.00661276C13.2102 -0.0627293 15.1367 0.554621 16.6738 1.74653L18.3439 3.04246L20.0127 1.74536C21.5499 0.552266 23.4773 -0.0658874 25.4444 0.00328197C27.4115 0.0724513 29.2877 0.82435 30.7319 2.12229C32.1762 3.42023 33.0926 5.17803 33.3145 7.07615C33.5365 8.97426 33.0493 10.8867 31.9415 12.4657H31.9427Z" fill="#004C4C"/>
<path d="M29.3667 16.1561C24.8623 21.5607 18.8636 23.9854 18.8636 23.9854C18.8636 23.9854 18.2447 19.9995 20.1182 17.2148C21.185 15.6326 22.406 15.2563 23.5426 13.2417C23.5626 13.2012 23.593 13.1664 23.6308 13.1407C23.6687 13.115 23.7128 13.0992 23.7588 13.0948C23.8048 13.0905 23.8512 13.0977 23.8935 13.1159C23.9358 13.134 23.9725 13.1625 24.0002 13.1985C24.2169 13.4976 24.424 13.9954 24.2603 14.7258C24.0194 15.8102 23.1766 16.4786 23.7389 16.8409C24.1784 17.1202 28.9369 13.9744 30.4817 9.31771C31.1464 7.33817 32.1674 12.7942 29.3667 16.1561Z" fill="#004C4C"/>
<path d="M7.32012 16.1561C11.8246 21.5607 17.8233 23.9854 17.8233 23.9854C17.8233 23.9854 18.4422 19.9995 16.5686 17.2148C15.5018 15.6326 14.2809 15.2563 13.1442 13.2417C13.1243 13.2012 13.0939 13.1664 13.056 13.1407C13.0181 13.115 12.9741 13.0992 12.928 13.0948C12.882 13.0905 12.8356 13.0977 12.7933 13.1159C12.751 13.134 12.7143 13.1625 12.6867 13.1985C12.47 13.4976 12.2628 13.9954 12.4266 14.7258C12.6674 15.8102 13.5103 16.4786 12.948 16.8409C12.5085 17.1202 7.74997 13.9744 6.20514 9.31771C5.54049 7.33817 4.51944 12.7942 7.32012 16.1561Z" fill="#004C4C"/>
</g>
<path d="M46.9788 16.4297V6.42969H43.8908V4.50969H52.2108V6.42969H49.1708V16.4297H46.9788ZM51.9296 16.4297V7.72569H53.8976V9.66169L53.7376 9.37369C53.9403 8.72302 54.2549 8.26969 54.6816 8.01369C55.1189 7.75769 55.6416 7.62969 56.2496 7.62969H56.7616V9.48569H56.0096C55.4123 9.48569 54.9323 9.67235 54.5696 10.0457C54.2069 10.4084 54.0256 10.9204 54.0256 11.5817V16.4297H51.9296ZM60.074 16.6217C59.466 16.6217 58.938 16.5204 58.49 16.3177C58.042 16.115 57.6953 15.827 57.45 15.4537C57.2046 15.0697 57.082 14.627 57.082 14.1257C57.082 13.6457 57.1886 13.219 57.402 12.8457C57.6153 12.4617 57.946 12.1417 58.394 11.8857C58.842 11.6297 59.4073 11.4484 60.09 11.3417L62.938 10.8777V12.4777L60.49 12.8937C60.074 12.9684 59.7646 13.1017 59.562 13.2937C59.3593 13.4857 59.258 13.7364 59.258 14.0457C59.258 14.3444 59.37 14.5844 59.594 14.7657C59.8286 14.9364 60.1166 15.0217 60.458 15.0217C60.8953 15.0217 61.2793 14.931 61.61 14.7497C61.9513 14.5577 62.2126 14.2964 62.394 13.9657C62.586 13.635 62.682 13.2724 62.682 12.8777V10.6377C62.682 10.2644 62.5326 9.95502 62.234 9.70969C61.946 9.45369 61.562 9.32569 61.082 9.32569C60.634 9.32569 60.234 9.44835 59.882 9.69369C59.5406 9.92835 59.29 10.243 59.13 10.6377L57.418 9.80569C57.5886 9.34702 57.8553 8.95235 58.218 8.62169C58.5913 8.28035 59.0286 8.01369 59.53 7.82169C60.0313 7.62969 60.5753 7.53369 61.162 7.53369C61.8766 7.53369 62.506 7.66702 63.05 7.93369C63.594 8.18969 64.0153 8.55235 64.314 9.02169C64.6233 9.48035 64.778 10.019 64.778 10.6377V16.4297H62.794V14.9417L63.242 14.9097C63.018 15.283 62.7513 15.5977 62.442 15.8537C62.1326 16.099 61.7806 16.291 61.386 16.4297C60.9913 16.5577 60.554 16.6217 60.074 16.6217ZM70.4272 16.6217C69.5632 16.6217 68.7846 16.4244 68.0912 16.0297C67.4086 15.6244 66.8699 15.0804 66.4752 14.3977C66.0806 13.7044 65.8832 12.9257 65.8832 12.0617C65.8832 11.1977 66.0806 10.4244 66.4752 9.74169C66.8699 9.05902 67.4086 8.52035 68.0912 8.12569C68.7846 7.73102 69.5632 7.53369 70.4272 7.53369C71.0459 7.53369 71.6219 7.64569 72.1552 7.86969C72.6886 8.08302 73.1472 8.38169 73.5312 8.76569C73.9259 9.13902 74.2086 9.58702 74.3792 10.1097L72.5392 10.9097C72.3792 10.4724 72.1072 10.1204 71.7232 9.85369C71.3499 9.58702 70.9179 9.45369 70.4272 9.45369C69.9686 9.45369 69.5579 9.56569 69.1952 9.78969C68.8432 10.0137 68.5659 10.323 68.3632 10.7177C68.1606 11.1124 68.0592 11.5657 68.0592 12.0777C68.0592 12.5897 68.1606 13.043 68.3632 13.4377C68.5659 13.8324 68.8432 14.1417 69.1952 14.3657C69.5579 14.5897 69.9686 14.7017 70.4272 14.7017C70.9286 14.7017 71.3659 14.5684 71.7392 14.3017C72.1126 14.035 72.3792 13.6777 72.5392 13.2297L74.3792 14.0617C74.2086 14.5524 73.9312 14.995 73.5472 15.3897C73.1632 15.7737 72.7046 16.0777 72.1712 16.3017C71.6379 16.515 71.0566 16.6217 70.4272 16.6217ZM75.4896 16.4297V4.31769H77.5856V12.2537L76.7856 12.0137L80.8816 7.72569H83.4896L80.2736 11.2297L83.5536 16.4297H81.1536L78.3056 11.9177L79.5536 11.6617L76.9296 14.4777L77.5856 13.1977V16.4297H75.4896ZM86.7837 16.4297V4.50969H88.8637L93.3277 10.5737H92.3357L96.7037 4.50969H98.7837V16.4297H96.5917V6.98969L97.4397 7.19769L92.9117 13.2297H92.6557L88.2397 7.19769L88.9597 6.98969V16.4297H86.7837ZM101.465 19.9657C101.23 19.9657 101.001 19.9444 100.777 19.9017C100.553 19.8697 100.35 19.811 100.169 19.7257V17.9657C100.308 17.9977 100.473 18.0297 100.665 18.0617C100.868 18.0937 101.054 18.1097 101.225 18.1097C101.705 18.1097 102.052 17.9977 102.265 17.7737C102.489 17.5497 102.686 17.2564 102.857 16.8937L103.433 15.5497L103.401 17.3097L99.609 7.72569H101.865L104.521 14.7977H103.721L106.361 7.72569H108.633L104.841 17.3097C104.617 17.875 104.345 18.355 104.025 18.7497C103.705 19.1444 103.332 19.443 102.905 19.6457C102.489 19.859 102.009 19.9657 101.465 19.9657ZM117.444 16.6217C116.59 16.6217 115.801 16.467 115.076 16.1577C114.361 15.8484 113.732 15.4164 113.188 14.8617C112.654 14.307 112.238 13.6564 111.94 12.9097C111.641 12.163 111.492 11.347 111.492 10.4617C111.492 9.57635 111.636 8.76035 111.924 8.01369C112.222 7.25635 112.638 6.60569 113.172 6.06169C113.716 5.50702 114.35 5.08035 115.076 4.78169C115.801 4.47235 116.59 4.31769 117.444 4.31769C118.297 4.31769 119.06 4.46169 119.732 4.74969C120.414 5.03769 120.99 5.42169 121.46 5.90169C121.929 6.37102 122.265 6.88835 122.468 7.45369L120.516 8.36569C120.292 7.76835 119.913 7.27769 119.38 6.89369C118.846 6.49902 118.201 6.30169 117.444 6.30169C116.697 6.30169 116.036 6.47769 115.46 6.82969C114.894 7.18169 114.452 7.66702 114.132 8.28569C113.822 8.90435 113.668 9.62969 113.668 10.4617C113.668 11.2937 113.822 12.0244 114.132 12.6537C114.452 13.2724 114.894 13.7577 115.46 14.1097C116.036 14.4617 116.697 14.6377 117.444 14.6377C118.201 14.6377 118.846 14.4457 119.38 14.0617C119.913 13.667 120.292 13.171 120.516 12.5737L122.468 13.4857C122.265 14.051 121.929 14.5737 121.46 15.0537C120.99 15.523 120.414 15.9017 119.732 16.1897C119.06 16.4777 118.297 16.6217 117.444 16.6217ZM126.062 16.6217C125.454 16.6217 124.926 16.5204 124.478 16.3177C124.03 16.115 123.683 15.827 123.438 15.4537C123.193 15.0697 123.07 14.627 123.07 14.1257C123.07 13.6457 123.177 13.219 123.39 12.8457C123.603 12.4617 123.934 12.1417 124.382 11.8857C124.83 11.6297 125.395 11.4484 126.078 11.3417L128.926 10.8777V12.4777L126.478 12.8937C126.062 12.9684 125.753 13.1017 125.55 13.2937C125.347 13.4857 125.246 13.7364 125.246 14.0457C125.246 14.3444 125.358 14.5844 125.582 14.7657C125.817 14.9364 126.105 15.0217 126.446 15.0217C126.883 15.0217 127.267 14.931 127.598 14.7497C127.939 14.5577 128.201 14.2964 128.382 13.9657C128.574 13.635 128.67 13.2724 128.67 12.8777V10.6377C128.67 10.2644 128.521 9.95502 128.222 9.70969C127.934 9.45369 127.55 9.32569 127.07 9.32569C126.622 9.32569 126.222 9.44835 125.87 9.69369C125.529 9.92835 125.278 10.243 125.118 10.6377L123.406 9.80569C123.577 9.34702 123.843 8.95235 124.206 8.62169C124.579 8.28035 125.017 8.01369 125.518 7.82169C126.019 7.62969 126.563 7.53369 127.15 7.53369C127.865 7.53369 128.494 7.66702 129.038 7.93369C129.582 8.18969 130.003 8.55235 130.302 9.02169C130.611 9.48035 130.766 10.019 130.766 10.6377V16.4297H128.782V14.9417L129.23 14.9097C129.006 15.283 128.739 15.5977 128.43 15.8537C128.121 16.099 127.769 16.291 127.374 16.4297C126.979 16.5577 126.542 16.6217 126.062 16.6217ZM132.223 16.4297V7.72569H134.191V9.66169L134.031 9.37369C134.234 8.72302 134.549 8.26969 134.975 8.01369C135.413 7.75769 135.935 7.62969 136.543 7.62969H137.055V9.48569H136.303C135.706 9.48569 135.226 9.67235 134.863 10.0457C134.501 10.4084 134.319 10.9204 134.319 11.5817V16.4297H132.223ZM141.856 16.6217C140.96 16.6217 140.176 16.419 139.504 16.0137C138.832 15.6084 138.309 15.059 137.936 14.3657C137.562 13.6724 137.376 12.9044 137.376 12.0617C137.376 11.187 137.562 10.4137 137.936 9.74169C138.32 9.05902 138.837 8.52035 139.488 8.12569C140.149 7.73102 140.885 7.53369 141.696 7.53369C142.378 7.53369 142.976 7.64569 143.488 7.86969C144.01 8.09369 144.453 8.40302 144.816 8.79769C145.178 9.19235 145.456 9.64569 145.648 10.1577C145.84 10.659 145.936 11.203 145.936 11.7897C145.936 11.939 145.925 12.0937 145.904 12.2537C145.893 12.4137 145.866 12.5524 145.824 12.6697H139.104V11.0697H144.64L143.648 11.8217C143.744 11.331 143.717 10.8937 143.568 10.5097C143.429 10.1257 143.194 9.82169 142.864 9.59769C142.544 9.37369 142.154 9.26169 141.696 9.26169C141.258 9.26169 140.869 9.37369 140.528 9.59769C140.186 9.81102 139.925 10.131 139.744 10.5577C139.573 10.9737 139.509 11.4804 139.552 12.0777C139.509 12.611 139.578 13.0857 139.76 13.5017C139.952 13.907 140.229 14.2217 140.592 14.4457C140.965 14.6697 141.392 14.7817 141.872 14.7817C142.352 14.7817 142.757 14.6804 143.088 14.4777C143.429 14.275 143.696 14.003 143.888 13.6617L145.584 14.4937C145.413 14.9097 145.146 15.2777 144.784 15.5977C144.421 15.9177 143.989 16.1684 143.488 16.3497C142.997 16.531 142.453 16.6217 141.856 16.6217Z" fill="#004C4C"/>
<defs>
<clipPath id="clip0_2288_90955">
<rect width="37.7143" height="24" fill="white"/>
</clipPath>
</defs>
</svg>
