<svg width="20" height="18" viewBox="0 0 20 18" fill="none" xmlns="http://www.w3.org/2000/svg">
<path d="M9.91732 17.3346L13.709 7.33464H15.459L19.2507 17.3346H17.5007L16.6257 14.793H12.584L11.6673 17.3346H9.91732ZM13.084 13.3346H16.084L14.6257 9.20963H14.5423L13.084 13.3346ZM3.33398 14.8346L2.16732 13.668L6.37565 9.45964C5.84787 8.8763 5.38607 8.27214 4.99023 7.64714C4.5944 7.02214 4.25065 6.36241 3.95898 5.66797H5.70898C5.95898 6.16797 6.22635 6.61936 6.51107 7.02214C6.79579 7.42491 7.13954 7.84852 7.54232 8.29297C8.15343 7.6263 8.66037 6.94227 9.06315 6.24089C9.46593 5.5395 9.80621 4.79297 10.084 4.0013H0.833984V2.33464H6.66732V0.667969H8.33398V2.33464H14.1673V4.0013H11.7507C11.459 4.98741 11.0632 5.94575 10.5632 6.8763C10.0632 7.80686 9.4451 8.68186 8.70898 9.5013L10.709 11.543L10.084 13.2513L7.50065 10.668L3.33398 14.8346Z" fill="#231F20"/>
</svg>
