<svg width="22" height="23" viewBox="0 0 22 23" fill="none" xmlns="http://www.w3.org/2000/svg">
<path d="M19.7087 10.4923V4.25898C19.7087 2.88398 19.122 2.33398 17.6645 2.33398H13.9612C12.5037 2.33398 11.917 2.88398 11.917 4.25898V10.4923C11.917 11.8673 12.5037 12.4173 13.9612 12.4173H17.6645C19.122 12.4173 19.7087 11.8673 19.7087 10.4923Z" fill="#004C4C"/>
<path d="M10.0837 12.509V18.7423C10.0837 20.1173 9.49699 20.6673 8.03949 20.6673H4.33616C2.87866 20.6673 2.29199 20.1173 2.29199 18.7423V12.509C2.29199 11.134 2.87866 10.584 4.33616 10.584H8.03949C9.49699 10.584 10.0837 11.134 10.0837 12.509Z" fill="#004C4C"/>
<path d="M19.7087 18.7417V16.175C19.7087 14.8 19.122 14.25 17.6645 14.25H13.9612C12.5037 14.25 11.917 14.8 11.917 16.175V18.7417C11.917 20.1167 12.5037 20.6667 13.9612 20.6667H17.6645C19.122 20.6667 19.7087 20.1167 19.7087 18.7417Z" fill="#004C4C"/>
<path d="M10.0837 6.82565V4.25898C10.0837 2.88398 9.49699 2.33398 8.03949 2.33398H4.33616C2.87866 2.33398 2.29199 2.88398 2.29199 4.25898V6.82565C2.29199 8.20065 2.87866 8.75065 4.33616 8.75065H8.03949C9.49699 8.75065 10.0837 8.20065 10.0837 6.82565Z" fill="#004C4C"/>
</svg>
