<svg width="22" height="23" viewBox="0 0 22 23" fill="none" xmlns="http://www.w3.org/2000/svg">
<path d="M20.1667 10.4917V4.25837C20.1667 2.88337 19.58 2.33337 18.1225 2.33337H14.4192C12.9617 2.33337 12.375 2.88337 12.375 4.25837V10.4917C12.375 11.8667 12.9617 12.4167 14.4192 12.4167H18.1225C19.58 12.4167 20.1667 11.8667 20.1667 10.4917Z" stroke="white" stroke-width="1.5" stroke-linecap="round" stroke-linejoin="round"/>
<path d="M20.1667 18.7416V17.0916C20.1667 15.7166 19.58 15.1666 18.1225 15.1666H14.4192C12.9617 15.1666 12.375 15.7166 12.375 17.0916V18.7416C12.375 20.1166 12.9617 20.6666 14.4192 20.6666H18.1225C19.58 20.6666 20.1667 20.1166 20.1667 18.7416Z" stroke="white" stroke-width="1.5" stroke-linecap="round" stroke-linejoin="round"/>
<path d="M9.62565 12.5084V18.7417C9.62565 20.1167 9.03898 20.6667 7.58148 20.6667H3.87815C2.42065 20.6667 1.83398 20.1167 1.83398 18.7417V12.5084C1.83398 11.1334 2.42065 10.5834 3.87815 10.5834H7.58148C9.03898 10.5834 9.62565 11.1334 9.62565 12.5084Z" stroke="white" stroke-width="1.5" stroke-linecap="round" stroke-linejoin="round"/>
<path d="M9.62565 4.25837V5.90837C9.62565 7.28337 9.03898 7.83337 7.58148 7.83337H3.87815C2.42065 7.83337 1.83398 7.28337 1.83398 5.90837V4.25837C1.83398 2.88337 2.42065 2.33337 3.87815 2.33337H7.58148C9.03898 2.33337 9.62565 2.88337 9.62565 4.25837Z" stroke="white" stroke-width="1.5" stroke-linecap="round" stroke-linejoin="round"/>
</svg>
