<svg width="22" height="22" viewBox="0 0 22 22" fill="none" xmlns="http://www.w3.org/2000/svg">
<path d="M16.537 12.4202C16.152 12.796 15.932 13.3368 15.987 13.9143C16.0695 14.9043 16.977 15.6285 17.967 15.6285H19.7087V16.7193C19.7087 18.6168 18.1595 20.166 16.262 20.166H5.73866C3.84116 20.166 2.29199 18.6168 2.29199 16.7193V10.5502C2.29199 8.65269 3.84116 7.10352 5.73866 7.10352H16.262C18.1595 7.10352 19.7087 8.65269 19.7087 10.5502V11.8702H17.857C17.3437 11.8702 16.8762 12.0718 16.537 12.4202Z" stroke="white" stroke-width="1.5" stroke-linecap="round" stroke-linejoin="round"/>
<path d="M2.29199 11.3757V7.18658C2.29199 6.09575 2.96116 5.12404 3.97866 4.73904L11.257 1.98904C12.3937 1.55821 13.6128 2.40157 13.6128 3.62073V7.10405" stroke="white" stroke-width="1.5" stroke-linecap="round" stroke-linejoin="round"/>
<path d="M20.6792 12.8061V14.6944C20.6792 15.1986 20.2759 15.6111 19.7626 15.6294H17.9659C16.9759 15.6294 16.0684 14.9052 15.9859 13.9152C15.9309 13.3377 16.1509 12.7969 16.5359 12.4211C16.8751 12.0727 17.3426 11.8711 17.8559 11.8711H19.7626C20.2759 11.8894 20.6792 12.3019 20.6792 12.8061Z" stroke="white" stroke-width="1.5" stroke-linecap="round" stroke-linejoin="round"/>
<path d="M6.41699 11H12.8337" stroke="white" stroke-width="1.5" stroke-linecap="round" stroke-linejoin="round"/>
</svg>
