<svg width="63" height="61" viewBox="0 0 63 61" fill="none" xmlns="http://www.w3.org/2000/svg">
<path fill-rule="evenodd" clip-rule="evenodd" d="M31.7539 58.2673C47.824 58.2673 60.7539 45.6184 60.7539 30.1336C60.7539 14.6489 47.824 2 31.7539 2C15.6838 2 2.75391 14.6489 2.75391 30.1336C2.75391 45.6184 15.6838 58.2673 31.7539 58.2673ZM31.7539 60.2673C48.8747 60.2673 62.7539 46.776 62.7539 30.1336C62.7539 13.4913 48.8747 0 31.7539 0C14.6331 0 0.753906 13.4913 0.753906 30.1336C0.753906 46.776 14.6331 60.2673 31.7539 60.2673ZM45.1568 21.6366C45.0908 21.9065 44.9596 22.1617 44.7633 22.3733L28.101 40.3279C27.5095 40.9654 26.5504 40.9654 25.9588 40.3279L18.3851 32.1668C17.9865 31.7373 17.8565 31.128 17.995 30.5813C17.8563 31.1282 17.9863 31.7376 18.385 32.1672L25.9587 40.3284C26.5503 40.9658 27.5094 40.9658 28.1009 40.3284L44.7632 22.3737C44.9596 22.162 45.0908 21.9067 45.1568 21.6366ZM45.2575 22.9064C46.1221 21.9748 46.1221 20.4643 45.2575 19.5327C44.393 18.6011 42.9912 18.6011 42.1266 19.5327L27.0298 35.8005L21.0215 29.3261C20.1569 28.3945 18.7552 28.3945 17.8906 29.3261C17.026 30.2578 17.026 31.7682 17.8906 32.6999L25.4644 40.8611C26.3289 41.7927 27.7307 41.7927 28.5953 40.8611L45.2575 22.9064Z" fill="#008A05"/>
</svg>
