<svg width="18" height="12" viewBox="0 0 18 12" fill="none" xmlns="http://www.w3.org/2000/svg">
<path d="M1.25 11.6344C1.0375 11.6344 0.859375 11.5625 0.715625 11.4187C0.571875 11.2749 0.5 11.0967 0.5 10.8841C0.5 10.6715 0.571875 10.4934 0.715625 10.3498C0.859375 10.2063 1.0375 10.1345 1.25 10.1345H16.75C16.9625 10.1345 17.1406 10.2064 17.2843 10.3502C17.4281 10.494 17.5 10.6722 17.5 10.8848C17.5 11.0974 17.4281 11.2755 17.2843 11.419C17.1406 11.5626 16.9625 11.6344 16.75 11.6344H1.25ZM1.25 6.74981C1.0375 6.74981 0.859375 6.67791 0.715625 6.53411C0.571875 6.39029 0.5 6.21209 0.5 5.99951C0.5 5.78691 0.571875 5.60882 0.715625 5.46523C0.859375 5.32165 1.0375 5.24986 1.25 5.24986H16.75C16.9625 5.24986 17.1406 5.32176 17.2843 5.46556C17.4281 5.60938 17.5 5.78758 17.5 6.00016C17.5 6.21276 17.4281 6.39085 17.2843 6.53443C17.1406 6.67802 16.9625 6.74981 16.75 6.74981H1.25ZM1.25 1.86521C1.0375 1.86521 0.859375 1.7933 0.715625 1.64948C0.571875 1.50568 0.5 1.32748 0.5 1.11488C0.5 0.9023 0.571875 0.724217 0.715625 0.580634C0.859375 0.437034 1.0375 0.365234 1.25 0.365234H16.75C16.9625 0.365234 17.1406 0.437142 17.2843 0.580959C17.4281 0.724775 17.5 0.902976 17.5 1.11556C17.5 1.32816 17.4281 1.50625 17.2843 1.64983C17.1406 1.79342 16.9625 1.86521 16.75 1.86521H1.25Z" fill="#1C1B1F"/>
</svg>
