<svg width="22" height="22" viewBox="0 0 22 22" fill="none" xmlns="http://www.w3.org/2000/svg">
<path d="M15.583 16.8933H11.9163L7.83716 19.6066C7.23216 20.0099 6.41634 19.5791 6.41634 18.8458V16.8933C3.66634 16.8933 1.83301 15.06 1.83301 12.31V6.8099C1.83301 4.0599 3.66634 2.22656 6.41634 2.22656H15.583C18.333 2.22656 20.1663 4.0599 20.1663 6.8099V12.31C20.1663 15.06 18.333 16.8933 15.583 16.8933Z" stroke="white" stroke-width="1.5" stroke-miterlimit="10" stroke-linecap="round" stroke-linejoin="round"/>
<path d="M11.0002 10.4141V10.2216C11.0002 9.59826 11.3852 9.26825 11.7702 9.00242C12.146 8.74575 12.5218 8.41576 12.5218 7.81076C12.5218 6.96743 11.8435 6.28906 11.0002 6.28906C10.1568 6.28906 9.47852 6.96743 9.47852 7.81076" stroke="white" stroke-width="1.5" stroke-linecap="round" stroke-linejoin="round"/>
<path d="M10.9962 12.6048H11.0045" stroke="white" stroke-width="1.5" stroke-linecap="round" stroke-linejoin="round"/>
</svg>
