<svg width="22" height="22" viewBox="0 0 22 22" fill="none" xmlns="http://www.w3.org/2000/svg">
<path d="M14.6663 11.6323V16.5731C14.6663 18.7181 13.2363 20.1389 11.1005 20.1389H5.39884C3.26301 20.1389 1.83301 18.7181 1.83301 16.5731V9.4506C1.83301 7.3056 3.26301 5.88477 5.39884 5.88477H8.90967C9.85384 5.88477 10.7613 6.2606 11.4305 6.92977L13.6213 9.11143C14.2905 9.7806 14.6663 10.6881 14.6663 11.6323Z" stroke="white" stroke-width="1.5" stroke-linecap="round" stroke-linejoin="round"/>
<path d="M20.1663 7.56331V12.5041C20.1663 14.64 18.7363 16.07 16.6005 16.07H14.6663V11.6333C14.6663 10.6891 14.2905 9.78164 13.6213 9.11247L11.4305 6.93081C10.7613 6.26164 9.85384 5.88581 8.90967 5.88581H7.33301V5.37247C7.33301 3.23664 8.76301 1.80664 10.8988 1.80664H14.4097C15.3538 1.80664 16.2613 2.18247 16.9305 2.85164L19.1213 5.04247C19.7905 5.71164 20.1663 6.61914 20.1663 7.56331Z" stroke="white" stroke-width="1.5" stroke-linecap="round" stroke-linejoin="round"/>
</svg>
