<svg width="44" height="44" viewBox="0 0 44 44" fill="none" xmlns="http://www.w3.org/2000/svg">
<rect x="0.5" y="0.5" width="43" height="43" rx="7.5" stroke="#868686"/>
<path d="M15.3984 12.0996H28.5984C29.6984 12.0996 30.5984 12.9996 30.5984 14.0996V16.2996C30.5984 17.0996 30.0984 18.0996 29.5984 18.5996L25.2984 22.3996C24.6984 22.8996 24.2984 23.8996 24.2984 24.6996V28.9996C24.2984 29.5996 23.8984 30.3996 23.3984 30.6996L21.9984 31.5996C20.6984 32.3996 18.8984 31.4996 18.8984 29.8996V24.5996C18.8984 23.8996 18.4984 22.9996 18.0984 22.4996L14.2984 18.4996C13.7984 17.9996 13.3984 17.0996 13.3984 16.4996V14.1996C13.3984 12.9996 14.2984 12.0996 15.3984 12.0996Z" stroke="#868686" stroke-width="1.5" stroke-miterlimit="10" stroke-linecap="round" stroke-linejoin="round"/>
</svg>
