<svg width="20" height="20" viewBox="0 0 20 20" fill="none" xmlns="http://www.w3.org/2000/svg">
<path d="M2.66634 19.1673C2.16217 19.1673 1.73058 18.9878 1.37155 18.6288C1.01252 18.2697 0.833008 17.8382 0.833008 17.334V8.16732C0.833008 7.66315 1.01252 7.23155 1.37155 6.87253C1.73058 6.5135 2.16217 6.33398 2.66634 6.33398H17.333C17.8372 6.33398 18.2688 6.5135 18.6278 6.87253C18.9868 7.23155 19.1663 7.66315 19.1663 8.16732V17.334C19.1663 17.8382 18.9868 18.2697 18.6278 18.6288C18.2688 18.9878 17.8372 19.1673 17.333 19.1673H2.66634ZM2.66634 17.334H17.333V8.16732H2.66634V17.334ZM8.16634 16.4173L13.6663 12.7507L8.16634 9.08398V16.4173ZM2.66634 5.41732V3.58398H17.333V5.41732H2.66634ZM5.41634 2.66732V0.833984H14.583V2.66732H5.41634Z" fill="white"/>
</svg>
